<?xml version="1.0" standalone="no"?>
<!DOCTYPE svg PUBLIC "-//W3C//DTD SVG 20010904//EN"
 "http://www.w3.org/TR/2001/REC-SVG-20010904/DTD/svg10.dtd">
<svg version="1.0" xmlns="http://www.w3.org/2000/svg"
 width="200.000000pt" height="200.000000pt" viewBox="0 0 200.000000 200.000000"
 preserveAspectRatio="xMidYMid meet">
<metadata>
Created by potrace 1.11, written by Peter Selinger 2001-2013
</metadata>
<g transform="translate(0.000000,200.000000) scale(0.100000,-0.100000)"
fill="#000000" stroke="none">
<path d="M935 1871 c9 -8 -51 -49 -67 -46 -10 2 -18 -1 -18 -7 0 -5 -7 -8 -15
-4 -12 4 -14 1 -7 -12 9 -21 9 -47 0 -47 -4 0 -15 -10 -23 -23 -9 -12 -20 -20
-24 -18 -4 3 -13 0 -21 -6 -12 -8 -12 -9 2 -4 14 4 16 0 13 -24 -5 -42 -12
-49 -44 -44 -16 3 -32 1 -35 -5 -3 -5 2 -7 13 -4 29 7 35 -25 9 -52 -17 -17
-26 -21 -35 -13 -9 7 -13 7 -13 0 0 -12 25 -23 43 -18 6 1 9 1 5 -1 -5 -3 -8
-12 -9 -21 0 -11 -2 -12 -6 -4 -2 6 -10 9 -15 6 -7 -4 -8 -2 -4 4 4 7 2 12 -3
12 -6 0 -11 -16 -11 -35 0 -37 -7 -43 -30 -22 -11 9 -11 8 0 -7 14 -18 13 -19
-3 -13 -14 5 -16 3 -8 -11 6 -11 6 -24 0 -35 -7 -12 -7 -17 2 -15 6 2 13 -5
14 -14 2 -10 0 -16 -3 -15 -4 1 -24 -12 -44 -28 -43 -34 -59 -37 -71 -15 -5
10 -6 8 -3 -7 2 -13 0 -23 -5 -23 -5 0 -9 5 -9 11 0 5 -4 7 -10 4 -5 -3 -10
-11 -10 -17 0 -6 3 -8 6 -5 4 3 15 2 25 -4 14 -7 19 -7 17 2 -2 6 7 12 20 14
28 2 28 1 -3 -19 -14 -10 -31 -13 -38 -9 -17 11 -30 11 -44 1 -7 -6 -17 -1
-27 14 -9 12 -16 18 -16 13 0 -5 10 -19 22 -32 22 -23 12 -33 -10 -11 -7 7
-12 8 -12 4 0 -5 8 -15 17 -22 15 -11 16 -13 3 -14 -9 0 -21 5 -27 11 -9 9
-11 7 -9 -7 2 -12 10 -18 20 -16 14 3 15 0 4 -17 -6 -11 -16 -17 -21 -14 -5 3
-2 -6 7 -20 16 -24 16 -25 -16 -46 -23 -14 -28 -21 -15 -21 14 0 16 -4 8 -19
-6 -10 -7 -22 -3 -26 4 -5 -2 -5 -12 -1 -15 5 -17 4 -7 -8 9 -11 9 -15 -1 -19
-10 -4 -10 -6 1 -6 8 -1 5 -9 -10 -22 l-24 -21 25 16 c13 9 31 16 40 15 10 0
11 -2 2 -6 -6 -2 -10 -9 -7 -14 4 -5 0 -6 -8 -3 -19 7 -32 -12 -16 -22 8 -5 9
-3 4 6 -5 9 -4 11 4 6 6 -4 9 -12 5 -17 -3 -5 -1 -16 6 -24 9 -11 7 -12 -12
-8 -23 5 -23 5 -3 -12 17 -14 17 -16 3 -11 -21 6 -22 2 -8 -24 7 -13 7 -21 0
-25 -6 -4 -8 -10 -5 -15 3 -5 -3 -13 -12 -19 -11 -6 -13 -11 -5 -11 7 0 10 -5
7 -10 -5 -8 -11 -7 -21 1 -12 9 -14 6 -14 -19 0 -23 -6 -32 -21 -37 -17 -6
-19 -9 -8 -16 10 -6 11 -9 2 -9 -7 0 -13 -5 -13 -11 0 -5 6 -7 12 -3 9 5 10 4
3 -4 -6 -7 -23 -13 -37 -14 -18 -2 -24 -7 -20 -17 3 -9 1 -12 -5 -8 -28 17
-48 -11 -30 -40 5 -9 2 -13 -8 -13 -9 0 -14 -4 -10 -9 3 -5 1 -13 -5 -16 -8
-5 -7 -12 2 -23 12 -13 10 -14 -9 -4 -16 9 -24 9 -29 0 -4 -7 -3 -8 4 -4 18
11 14 -10 -3 -24 -9 -7 -14 -19 -11 -27 3 -8 -1 -16 -9 -20 -12 -4 -13 -8 -4
-19 10 -12 9 -13 -5 -8 -11 4 -16 1 -16 -11 0 -9 -4 -13 -10 -10 -6 3 -7 -1
-4 -9 4 -9 0 -18 -9 -22 -9 -3 -14 -14 -12 -25 2 -11 -5 -29 -15 -39 -23 -23
-26 -34 -7 -24 6 3 1 -4 -13 -17 -14 -13 -21 -21 -16 -17 5 4 17 -3 27 -15 13
-17 15 -25 6 -36 -9 -12 -9 -13 1 -7 7 4 12 2 12 -4 0 -6 5 -8 12 -4 7 5 9 1
6 -13 -4 -16 -2 -19 13 -16 13 4 18 1 16 -8 -2 -8 -2 -11 1 -6 2 4 13 12 24
18 15 8 19 8 14 0 -4 -6 -2 -11 4 -11 6 0 9 -4 5 -9 -3 -5 0 -13 7 -17 7 -4
10 -4 6 1 -12 13 30 37 52 30 21 -7 28 -25 10 -25 -5 0 -10 -4 -10 -8 0 -5 7
-9 15 -9 8 0 12 4 9 9 -3 4 0 8 6 8 6 0 9 4 6 8 -2 4 4 9 15 9 29 2 41 -29 23
-58 -15 -24 -15 -24 6 1 20 23 78 41 65 20 -3 -5 4 -7 15 -5 18 3 25 -6 21
-28 -1 -5 10 0 25 12 14 11 31 18 37 14 6 -3 7 -1 3 6 -6 9 -14 8 -32 -4 -32
-21 -31 -5 2 26 16 15 24 18 22 9 -2 -9 5 -15 20 -16 15 -1 21 3 18 12 -3 8 0
11 9 7 8 -3 12 -9 9 -14 -3 -5 -1 -9 5 -9 5 0 12 6 14 13 4 10 6 10 6 0 1 -7
6 -13 11 -13 6 0 9 3 9 8 -3 20 2 32 12 26 8 -5 8 -9 -1 -14 -8 -5 -7 -9 4
-13 9 -4 16 -2 16 3 0 6 5 10 11 10 5 0 7 -5 3 -12 -5 -8 -2 -9 9 -5 9 3 19 2
22 -4 4 -5 11 -7 16 -4 8 6 13 -8 10 -27 -2 -14 17 -9 22 6 3 7 14 16 25 18
14 4 19 2 15 -8 -2 -7 -11 -10 -19 -7 -25 9 -15 -12 11 -24 21 -9 25 -9 23 2
-2 8 2 14 7 14 6 0 8 -8 6 -17 -3 -16 -1 -15 16 1 11 9 23 17 28 17 5 0 0 -7
-11 -15 -14 -11 -15 -15 -4 -14 26 2 40 -1 40 -9 0 -4 -11 -8 -25 -8 -14 0
-25 4 -25 10 0 5 -3 6 -6 3 -4 -4 -1 -14 7 -24 12 -15 12 -16 -4 -10 -10 4
-20 7 -23 7 -2 0 -2 6 0 12 1 7 1 9 -2 5 -2 -4 -10 0 -17 10 -11 15 -15 15
-29 4 -11 -9 -16 -10 -16 -2 0 6 -4 11 -10 11 -5 0 -7 -7 -3 -16 3 -8 12 -13
19 -10 8 3 18 -3 24 -14 17 -32 46 -43 65 -24 9 9 19 14 22 10 4 -3 1 -12 -5
-18 -7 -7 -12 -16 -12 -22 0 -5 6 -1 14 9 12 16 16 17 30 6 13 -11 20 -9 45 8
16 12 34 21 39 21 5 0 9 11 8 24 0 13 -5 22 -9 19 -5 -3 -6 -12 -3 -22 5 -12
2 -11 -9 3 -8 11 -15 15 -15 8 0 -6 -10 -9 -21 -7 -25 5 -38 15 -20 15 7 0 10
4 6 10 -3 5 -13 7 -23 3 -11 -3 -9 1 6 11 12 10 19 22 16 28 -4 7 -2 8 5 4 9
-6 9 -11 1 -21 -16 -19 15 -42 35 -25 8 7 15 9 15 6 0 -4 9 -2 21 4 19 10 20
10 10 -9 -6 -11 -7 -22 -2 -25 4 -3 7 -16 6 -28 -1 -13 0 -15 2 -5 2 9 9 15
14 12 5 -4 9 -1 9 5 0 6 5 8 10 5 6 -4 7 -12 4 -18 -4 -7 -4 -9 1 -5 4 4 15 2
24 -4 9 -7 5 0 -8 14 -12 15 -21 31 -17 36 3 5 -1 9 -8 9 -8 0 -12 -6 -9 -14
3 -7 1 -13 -5 -13 -13 0 -9 30 4 32 5 0 15 8 22 17 11 14 11 14 6 -2 -4 -10
-3 -17 2 -16 18 3 54 -14 48 -22 -3 -5 -1 -9 5 -9 5 0 13 5 16 10 4 6 10 8 14
6 4 -3 13 -1 20 3 9 6 10 11 2 15 -6 4 -11 2 -11 -4 0 -6 -5 -8 -11 -4 -8 4
-7 9 2 16 11 8 11 9 -1 5 -8 -2 -14 -10 -12 -16 3 -14 -4 -14 -27 -1 -23 12
-34 37 -20 45 5 4 9 3 8 -2 -4 -21 2 -33 17 -33 8 0 13 4 10 9 -4 5 5 8 19 6
14 -1 28 2 31 6 3 5 11 9 17 9 8 0 8 -3 2 -8 -6 -4 -10 -14 -10 -22 1 -8 -3
-21 -8 -28 -6 -8 -6 -12 2 -12 6 0 11 5 11 11 0 5 5 7 12 3 7 -5 8 -3 3 5 -4
7 -2 24 6 37 9 18 15 21 21 12 6 -10 8 -9 8 2 0 13 1 13 10 0 5 -8 10 -19 10
-25 0 -5 -5 -3 -10 5 -9 13 -10 13 -10 0 0 -12 -2 -12 -9 -1 -6 9 -11 10 -15
2 -4 -6 -3 -11 3 -11 5 0 8 -11 7 -25 -2 -13 1 -22 6 -19 5 3 7 12 4 20 -3 7
-1 16 4 19 6 4 10 0 10 -7 0 -10 2 -10 9 1 7 11 9 11 14 0 4 -11 6 -11 6 -1 1
7 5 10 11 7 5 -3 7 0 4 9 -4 10 0 14 15 13 12 -1 21 -5 21 -9 0 -16 39 -8 49
10 5 10 22 18 38 19 23 1 25 0 8 -6 -11 -5 -23 -7 -27 -5 -3 2 -4 -5 -1 -16 3
-11 9 -20 14 -20 5 0 6 7 2 15 -3 10 0 15 8 13 19 -4 38 -22 33 -30 -5 -7 35
-2 43 6 3 3 2 10 -2 16 -5 8 -10 8 -20 0 -9 -8 -14 -6 -19 6 -4 9 -4 19 -1 22
3 3 5 0 5 -6 0 -7 5 -12 11 -12 5 0 8 3 6 7 -3 5 7 9 21 9 15 1 21 -1 15 -3
-7 -3 -13 -9 -13 -14 0 -6 5 -7 12 -3 7 5 9 2 5 -8 -3 -9 3 -24 14 -34 11 -10
19 -12 19 -6 0 7 -6 12 -12 12 -8 1 -6 6 5 14 9 7 17 17 17 21 0 4 -7 2 -15
-5 -10 -9 -15 -9 -15 -1 0 6 5 11 11 11 5 0 7 6 3 13 -5 8 -2 7 9 -2 10 -8 15
-21 12 -30 -3 -10 4 -22 16 -29 17 -11 20 -11 13 0 -13 20 -15 46 -4 53 10 6
14 -8 10 -34 -1 -12 1 -12 13 -3 7 6 17 9 20 5 4 -3 7 -1 7 5 0 6 9 9 20 7 11
-2 20 0 20 6 0 5 -5 9 -12 9 -6 0 -9 3 -6 6 4 3 19 -2 35 -11 15 -9 20 -14 10
-11 -10 3 -16 2 -12 -3 3 -5 -3 -8 -12 -6 -18 2 -73 -21 -73 -31 0 -2 9 0 19
6 27 14 31 13 25 -7 -5 -15 -4 -16 5 -3 6 8 11 11 11 6 0 -6 6 -4 12 2 10 10
17 8 31 -10 l19 -23 -16 27 c-9 16 -12 28 -7 28 6 0 15 -8 20 -17 10 -17 10
-17 11 0 0 9 -4 17 -10 17 -5 0 -7 7 -4 15 4 8 14 15 23 15 11 0 12 -3 4 -8
-9 -6 -7 -11 7 -20 12 -7 20 -8 20 -2 0 5 -3 10 -7 10 -5 0 -9 12 -10 27 0 14
2 22 5 17 9 -12 52 -14 52 -2 0 5 6 6 13 1 6 -4 20 -6 30 -5 9 2 17 -2 17 -8
0 -6 -4 -9 -9 -5 -5 3 -12 1 -16 -5 -9 -15 -15 -54 -7 -46 4 4 8 12 8 17 1 5
2 14 3 19 1 12 23 9 33 -5 5 -6 18 -3 36 7 16 10 31 15 34 12 3 -2 5 8 4 23 0
15 -5 32 -11 36 -6 5 -3 7 8 3 9 -3 17 -1 17 5 0 6 5 7 11 3 6 -3 7 -9 3 -13
-12 -8 -13 -72 -2 -65 5 3 6 9 3 14 -3 5 -1 11 3 14 11 6 8 48 -4 68 -5 9 -1
8 11 -2 17 -14 18 -14 7 6 -9 17 -8 25 8 42 11 12 15 22 9 24 -6 2 -13 19 -15
37 -5 43 -10 50 -33 44 -22 -6 -35 29 -17 47 6 6 7 11 1 10 -22 -5 -27 1 -14
18 13 15 12 16 -4 3 -13 -10 -15 -17 -6 -27 6 -8 7 -14 3 -14 -5 0 -15 9 -22
21 -8 12 -9 18 -4 15 14 -8 22 18 11 35 -6 9 -9 10 -9 2 0 -8 -7 -10 -17 -6
-11 4 -13 8 -5 11 10 3 10 7 1 18 -6 8 -8 14 -3 14 5 0 2 5 -6 11 -13 9 -12
10 2 5 10 -3 20 0 24 6 4 7 3 8 -4 4 -6 -4 -18 5 -26 21 -15 28 -16 28 -13 3
1 -13 -2 -25 -8 -25 -5 0 -17 -4 -25 -9 -9 -6 -8 -1 4 12 10 12 19 33 19 48 0
18 2 22 8 13 5 -8 9 -9 9 -3 0 5 -5 15 -11 21 -14 14 -2 36 14 26 7 -3 5 2 -4
13 -9 10 -14 26 -12 34 4 13 3 13 -6 0 -6 -9 -6 -19 -1 -25 7 -8 5 -12 -5 -12
-8 0 -12 4 -9 8 2 4 0 11 -6 14 -6 4 -9 20 -6 36 2 16 0 29 -6 29 -6 0 -8 -7
-5 -15 4 -8 1 -17 -5 -21 -7 -4 -8 -3 -4 4 4 7 2 12 -4 12 -6 0 -9 4 -6 8 3 5
-2 9 -10 9 -9 0 -13 -6 -9 -16 5 -13 4 -14 -7 -3 -11 11 -10 16 6 28 24 17 13
19 -17 2 -20 -10 -21 -10 -8 5 9 11 10 17 2 17 -6 0 -11 5 -11 11 0 5 5 7 12
3 7 -4 8 -3 4 4 -4 7 -13 12 -21 12 -14 0 -15 16 -1 38 4 7 4 12 -1 11 -20 -3
-23 2 -12 24 8 16 8 19 0 11 -16 -14 -23 -57 -9 -48 7 5 8 2 3 -5 -5 -9 -10
-10 -18 -2 -8 8 -6 21 6 46 12 24 13 36 5 41 -7 4 -8 3 -4 -4 15 -24 -10 -10
-29 16 -15 22 -16 24 -2 13 15 -12 17 -12 11 3 -3 9 -10 16 -16 16 -5 0 -7 4
-3 9 5 9 -10 8 -58 -3 -12 -3 -16 -3 -9 0 6 3 9 11 5 17 -4 6 0 8 10 4 9 -3
19 -2 22 4 4 5 3 9 -2 8 -27 -5 -43 3 -43 20 0 11 -4 23 -10 26 -5 3 -10 15
-10 25 0 10 -4 21 -9 24 -5 3 -8 -5 -7 -19 0 -14 7 -27 14 -30 6 -2 12 -9 12
-15 0 -6 -7 -4 -16 4 -8 9 -21 16 -27 16 -8 0 -7 3 2 9 9 6 10 14 4 27 -19 38
-9 52 44 56 7 1 10 5 7 10 -3 4 -14 3 -25 -2 -13 -8 -19 -7 -19 0 0 6 -4 9 -9
5 -5 -3 -12 -1 -16 5 -4 6 -12 7 -18 3 -9 -5 -9 -3 0 8 7 9 8 20 3 29 -5 8 -6
18 -4 22 5 7 -11 12 -29 9 -5 -1 -6 3 -3 8 7 10 -59 71 -77 71 -7 0 -8 3 -2 8
26 19 14 49 -18 43 -5 -1 -6 3 -2 9 3 6 11 8 16 5 5 -3 6 1 3 9 -3 9 -10 13
-15 10 -5 -3 -9 2 -9 11 0 9 4 14 8 11 4 -2 8 4 8 14 0 11 -6 16 -14 13 -7 -3
-10 -8 -8 -11 8 -7 -14 -32 -28 -32 -6 0 -5 4 3 9 7 5 10 14 7 20 -4 6 -11 9
-14 7 -4 -2 -6 14 -5 37 2 59 2 59 11 53 4 -2 9 4 9 15 2 18 0 18 -17 -3 -11
-13 -19 -18 -20 -12 0 5 5 15 12 22 17 17 -2 35 -22 21 -13 -9 -12 -10 3 -5 9
3 17 1 17 -4 0 -6 -6 -10 -13 -10 -20 0 -36 21 -30 38 4 9 2 13 -4 9 -6 -4
-10 1 -9 11 0 9 -5 16 -12 14 -8 -1 -11 2 -8 7 4 5 1 11 -6 13 -8 3 -6 7 5 11
9 3 16 3 15 -1 -2 -4 6 -19 16 -34 10 -15 14 -33 10 -39 -4 -8 -3 -9 5 -5 16
10 10 38 -11 54 -11 8 -15 21 -12 40 5 26 5 26 -11 7 l-17 -20 6 20 c6 20 6
20 -9 1 -17 -22 -20 -14 -5 14 8 15 6 17 -9 13 -11 -3 -18 -10 -17 -16 2 -7 1
-9 -1 -4 -3 4 -9 4 -15 1 -5 -3 -4 3 3 14 7 12 16 19 20 16 4 -2 11 1 15 7 4
8 3 9 -4 5 -7 -4 -12 -2 -12 5 0 6 -8 3 -17 -8 -10 -10 -14 -13 -9 -6 5 8 4
13 -2 13 -6 0 -16 10 -23 21 -9 17 -8 20 3 14 7 -5 10 -5 6 0 -4 4 -2 15 5 24
10 14 10 14 -5 3 -14 -12 -21 -11 -40 2 -13 9 -22 19 -20 21 8 16 -1 27 -19
22 -17 -5 -18 -3 -7 11 11 13 11 15 -4 9 -10 -3 -18 -3 -18 1 0 4 -15 7 -34 7
-19 0 -33 -2 -31 -4z m-70 -71 c-3 -5 -11 -10 -16 -10 -6 0 -7 5 -4 10 3 6 11
10 16 10 6 0 7 -4 4 -10z m-31 -82 c-3 -5 -10 -5 -16 -2 -7 5 -9 1 -5 -9 4
-11 2 -14 -9 -10 -10 4 -11 9 -4 18 11 13 42 16 34 3z m136 -169 c0 -6 -4 -7
-10 -4 -5 3 -10 11 -10 16 0 6 5 7 10 4 6 -3 10 -11 10 -16z m-70 -29 c0 -5
-5 -10 -11 -10 -5 0 -7 5 -4 10 3 6 8 10 11 10 2 0 4 -4 4 -10z m50 0 c0 -5 7
-10 15 -10 8 0 15 -4 15 -10 0 -5 -6 -7 -13 -4 -8 3 -19 -1 -25 -9 -10 -11 -6
-14 18 -14 20 0 30 5 31 16 0 11 2 12 6 3 3 -7 -2 -21 -11 -31 -15 -16 -15
-19 4 -36 21 -19 28 -7 8 13 -7 7 -9 12 -6 12 4 0 23 -16 43 -36 35 -34 38
-35 60 -20 14 9 28 16 32 16 4 0 0 -5 -9 -11 -10 -5 -18 -15 -18 -21 0 -7 4
-7 13 1 8 6 17 8 20 4 4 -3 7 0 7 7 0 9 5 7 14 -6 8 -10 22 -19 32 -19 9 0 19
-6 21 -12 3 -7 0 -13 -7 -13 -6 0 -8 5 -4 12 5 8 2 9 -9 5 -9 -3 -19 -1 -23 5
-4 7 -9 6 -15 -3 -5 -8 -9 -9 -9 -3 0 5 -11 10 -25 10 -25 0 -36 -15 -12 -17
30 -3 63 -6 75 -7 7 -1 11 -6 8 -10 -6 -10 -68 -8 -84 2 -8 4 -16 5 -19 2 -4
-3 -1 -6 6 -6 7 0 10 -4 6 -9 -3 -6 6 -8 20 -5 16 3 24 0 23 -8 -2 -7 7 -13
19 -14 12 -1 20 2 18 7 -3 4 -1 10 5 14 5 3 10 1 10 -4 0 -6 5 -11 11 -11 8 0
8 5 -1 15 -9 10 -9 15 -1 15 6 0 11 -5 11 -11 0 -5 6 -7 13 -3 9 6 9 4 -1 -8
-10 -13 -10 -17 4 -22 15 -6 15 -8 -2 -28 -18 -20 -18 -21 -1 -15 10 4 16 3
13 -2 -3 -5 1 -11 9 -15 9 -3 12 -12 8 -22 -4 -11 -2 -15 4 -11 10 6 20 -8 24
-31 2 -15 22 -32 35 -30 7 2 13 -1 14 -6 0 -6 -6 -11 -15 -12 -8 -1 -15 3 -15
9 0 7 -5 5 -10 -3 -10 -16 -13 -10 -13 32 0 10 -3 15 -8 13 -4 -3 -6 -18 -3
-33 3 -20 2 -23 -5 -12 -6 8 -14 11 -18 6 -4 -5 -2 -11 5 -13 6 -3 9 -10 5
-16 -4 -7 -1 -7 9 1 11 9 18 10 23 2 3 -5 2 -10 -3 -10 -5 0 -9 -7 -9 -16 0
-14 2 -14 14 2 13 18 15 17 38 -8 26 -29 33 -44 13 -32 -7 4 -8 3 -4 -4 4 -7
2 -12 -5 -12 -7 0 -9 -3 -6 -6 4 -4 13 -2 20 4 8 7 17 9 20 5 4 -3 -1 -12 -11
-20 -15 -13 -15 -13 5 -4 29 14 33 14 33 -4 0 -8 4 -15 8 -15 5 0 9 7 9 15 0
8 -4 15 -9 15 -5 0 -7 4 -4 9 3 5 -2 8 -12 7 -10 0 -16 6 -16 16 1 10 -3 15
-9 11 -6 -3 -7 -1 -3 6 4 6 12 8 18 5 6 -4 9 -1 6 6 -6 20 -28 24 -28 5 0 -9
-5 -13 -10 -10 -8 5 -7 12 2 23 11 15 11 15 -3 5 -9 -7 -19 -10 -22 -6 -14 13
-6 21 19 18 28 -3 54 -23 58 -46 2 -8 7 -22 11 -32 6 -15 10 -16 16 -5 6 9 9
9 9 1 0 -6 -5 -15 -11 -19 -8 -4 -7 -9 2 -15 11 -7 9 -10 -8 -15 -13 -4 -23
-11 -23 -16 0 -6 7 -8 15 -5 15 7 29 -9 30 -33 0 -8 6 -14 13 -12 6 1 12 -3
12 -9 0 -6 -7 -8 -16 -5 -15 6 -15 4 -3 -11 8 -9 9 -14 2 -10 -6 4 -14 1 -16
-5 -5 -12 -9 3 -11 46 -1 11 -6 21 -12 23 -18 6 -25 -25 -9 -41 8 -8 15 -19
15 -24 0 -5 9 -17 20 -27 19 -17 19 -19 3 -39 -15 -17 -13 -17 8 2 l27 23 0
-25 c0 -15 -5 -23 -11 -19 -6 3 -7 1 -3 -5 4 -6 14 -8 22 -5 11 4 12 9 5 16
-7 7 -7 15 0 24 11 12 2 18 -23 15 -3 -1 -12 5 -18 13 -16 19 -7 19 31 -1 17
-8 28 -18 25 -21 -3 -4 -1 -13 6 -20 9 -11 9 -17 -3 -24 -13 -8 -6 -13 14 -10
5 1 6 -3 2 -9 -3 -5 -2 -10 4 -10 5 0 12 6 14 13 3 6 3 -3 0 -20 -4 -22 -1
-33 6 -33 7 0 9 5 5 12 -5 7 -3 8 6 3 10 -6 9 -11 -5 -22 -18 -13 -18 -14 7
-17 6 0 13 -7 16 -15 3 -10 0 -12 -12 -8 -9 4 -15 3 -12 -1 3 -5 -1 -9 -9 -9
-8 0 -11 5 -8 10 4 6 1 7 -8 2 -12 -8 -12 -6 0 8 11 14 11 17 0 18 -10 0 -11
2 -2 6 20 7 -3 42 -26 40 -11 0 -18 -4 -15 -8 2 -4 -3 -10 -12 -13 -13 -5 -14
-9 -4 -21 7 -8 17 -12 23 -8 6 4 8 0 4 -11 -4 -9 -3 -14 2 -11 5 3 12 1 16 -5
3 -5 0 -10 -7 -10 -7 -1 -2 -7 11 -14 14 -8 19 -16 13 -20 -6 -3 -12 0 -15 6
-3 10 -8 10 -22 -2 -16 -14 -17 -13 -12 5 10 30 -6 50 -23 30 -11 -14 -14 -14
-24 1 -10 13 -16 12 -44 -16 -23 -21 -39 -29 -52 -25 -26 8 -47 -30 -28 -52
11 -14 10 -15 -10 -9 -14 5 -22 3 -22 -4 0 -6 4 -9 9 -6 5 4 11 1 13 -6 4 -12
26 -19 70 -20 15 -1 24 -6 21 -11 -3 -6 -1 -7 6 -3 6 4 9 11 6 16 -6 9 25 23
33 15 3 -3 0 -5 -7 -5 -8 0 -11 -6 -7 -16 4 -10 2 -13 -7 -8 -6 4 -9 3 -4 -1
4 -5 -1 -18 -10 -29 -17 -20 -17 -20 1 -6 24 19 79 23 73 6 -3 -7 1 -13 8 -13
10 0 11 5 4 18 -7 14 -5 21 10 28 23 13 42 -6 37 -36 -3 -16 1 -20 17 -19 12
0 26 6 30 11 5 6 6 2 3 -8 -4 -12 -2 -16 6 -11 7 5 8 3 3 -6 -5 -9 -4 -11 4
-6 9 6 8 13 -3 31 -15 22 -14 24 4 22 13 -1 19 -6 15 -15 -2 -7 0 -10 5 -7 16
10 11 -12 -6 -30 -12 -11 -20 -13 -29 -5 -8 7 -16 7 -19 2 -9 -15 23 -23 45
-12 10 6 19 16 19 23 0 8 4 7 9 -3 12 -17 4 -33 -11 -24 -7 5 -9 1 -5 -9 4
-11 1 -15 -11 -12 -35 7 -77 28 -64 32 6 3 9 9 6 15 -3 5 -14 2 -25 -8 -28
-26 -51 -26 -76 -2 -13 12 -23 18 -23 14 0 -5 -8 -2 -17 5 -15 12 -16 12 -10
-3 10 -27 -16 -41 -36 -18 -9 11 -12 20 -7 20 6 0 13 -7 16 -15 4 -8 10 -12
16 -9 5 3 5 11 -2 19 -6 7 -9 18 -8 25 2 7 -3 15 -10 17 -7 3 -11 -1 -10 -7 5
-23 -20 -21 -42 2 -15 17 -19 18 -15 6 6 -14 2 -18 -16 -18 -12 0 -19 -3 -16
-6 11 -11 -14 -46 -29 -40 -8 3 -14 1 -14 -3 0 -5 -7 -12 -16 -15 -8 -3 -12
-2 -9 4 3 6 -1 13 -9 16 -17 7 -16 38 2 56 15 15 15 3 1 -23 -10 -19 -9 -20
13 -8 13 7 28 12 35 11 17 -4 27 18 15 30 -8 8 -8 17 -1 30 6 11 8 22 5 26 -3
3 -6 0 -6 -7 0 -7 -5 -9 -10 -6 -6 4 -7 12 -4 18 4 7 -1 4 -11 -5 -15 -14 -16
-20 -5 -32 13 -17 10 -19 -14 -10 -9 3 -13 11 -9 17 3 6 1 7 -6 3 -6 -4 -8
-12 -5 -18 4 -6 -6 -22 -22 -35 -16 -13 -22 -22 -14 -20 8 2 12 2 7 0 -4 -3
-5 -9 -2 -13 3 -5 -4 -15 -15 -23 -11 -7 -18 -16 -15 -18 2 -3 -5 -6 -17 -6
-19 -2 -19 -1 -3 11 13 9 15 15 7 20 -7 4 -12 2 -12 -3 0 -6 -9 -11 -21 -11
-11 0 -18 -4 -15 -8 2 -4 1 -14 -5 -22 -5 -8 -9 -10 -9 -4 0 6 -7 11 -15 11
-10 0 -14 -6 -10 -16 4 -13 2 -12 -9 2 -18 23 -25 21 -20 -5 l5 -23 -10 22
c-7 15 -16 21 -26 17 -8 -3 -12 -11 -8 -17 4 -6 1 -7 -6 -3 -7 5 -10 10 -8 13
3 2 -5 14 -17 27 -14 15 -25 19 -34 13 -8 -7 -18 -5 -30 5 -9 9 -23 13 -31 10
-8 -3 -11 0 -7 7 4 6 2 11 -4 11 -17 0 -6 -25 11 -26 31 -3 33 -5 19 -14 -10
-6 -28 -2 -57 15 -24 13 -43 19 -43 12 0 -6 -6 -3 -13 8 -8 10 -19 15 -25 11
-14 -8 -15 3 -3 23 7 10 11 9 23 -8 8 -11 17 -18 21 -15 3 3 16 0 29 -7 21
-11 22 -11 9 4 -7 10 -21 17 -31 17 -9 0 -25 9 -35 20 l-18 20 -24 -22 c-12
-12 -26 -19 -29 -15 -4 4 4 16 17 27 l24 20 -32 -17 c-33 -18 -43 -33 -21 -33
15 0 1 -13 -17 -16 -15 -2 -15 15 0 49 5 11 14 16 24 12 13 -5 14 -4 3 7 -11
11 -15 10 -25 -2 -7 -9 -21 -14 -32 -13 -15 2 -16 1 -5 -5 17 -8 25 -32 10
-32 -6 0 -10 5 -10 11 0 5 -4 7 -10 4 -5 -3 -10 -1 -10 5 0 7 -7 9 -16 6 -12
-5 -15 -2 -9 11 5 14 1 12 -15 -5 -12 -13 -18 -27 -13 -34 10 -18 11 -48 1
-48 -4 0 -8 5 -8 10 0 6 -8 5 -20 -2 -11 -7 -20 -18 -20 -25 0 -7 -5 -13 -11
-13 -5 0 -8 4 -5 9 4 5 -2 8 -11 7 -10 -2 -21 2 -25 8 -6 8 -8 8 -8 0 0 -6 8
-18 17 -25 14 -12 16 -12 8 0 -5 10 -4 12 3 7 9 -5 7 -14 -5 -31 -10 -13 -20
-21 -22 -19 -2 2 2 11 10 21 12 15 12 16 -4 10 -12 -5 -16 -3 -11 5 5 7 3 8
-6 3 -10 -6 -12 -4 -6 11 7 18 6 18 -10 2 -16 -16 -18 -16 -31 0 -12 15 -13
15 -7 0 4 -12 1 -16 -13 -13 -10 2 -22 4 -26 4 -5 1 -5 5 -2 11 3 5 1 10 -5
10 -7 0 -9 -7 -6 -16 5 -14 4 -15 -8 -5 -13 11 -12 16 2 41 9 16 20 26 24 24
3 -2 9 -1 12 4 3 5 -2 9 -10 9 -9 0 -21 -11 -26 -23 -9 -19 -14 -21 -32 -13
-20 10 -20 10 -2 -5 12 -10 15 -16 7 -16 -7 0 -11 -5 -9 -11 2 -6 6 -9 9 -7 3
2 13 -3 22 -10 9 -8 22 -10 28 -6 7 4 9 3 6 -3 -3 -5 0 -10 8 -10 8 0 12 3 10
6 -2 4 10 7 26 7 28 2 36 -6 22 -19 -3 -4 -13 -1 -21 6 -13 10 -15 9 -9 -6 5
-14 3 -16 -12 -8 -10 6 -21 8 -24 5 -11 -11 -42 -11 -56 -1 -19 16 -43 18 -38
4 3 -7 10 -11 16 -10 6 2 11 -2 11 -7 0 -12 -10 -13 -29 -1 -9 6 -11 16 -6 32
7 20 6 22 -7 12 -12 -10 -15 -10 -15 2 0 8 4 12 8 9 4 -2 10 0 14 6 3 5 0 10
-7 10 -7 0 -2 7 10 16 12 8 20 19 17 24 -3 5 -1 11 5 15 6 4 8 10 6 14 -8 12
28 9 37 -3 5 -7 7 -2 4 11 -3 13 1 24 9 27 8 3 13 2 13 -2 -3 -20 2 -32 12
-26 8 4 7 9 -2 15 -12 7 -11 9 1 10 8 1 18 1 23 0 4 0 7 4 7 10 0 6 -7 9 -15
5 -8 -3 -25 -1 -37 4 -17 6 -19 9 -6 9 11 1 15 6 12 16 -4 8 -1 15 5 15 6 0
10 6 8 13 -1 6 6 11 16 9 11 -2 17 4 17 18 0 22 10 25 28 10 6 -6 10 -7 7 -4
-3 4 3 12 12 19 13 9 13 14 3 20 -9 6 -11 4 -5 -5 5 -9 4 -11 -3 -6 -7 4 -12
2 -12 -4 0 -6 -5 -8 -11 -5 -6 5 -2 13 11 22 16 11 25 12 33 4 12 -12 37 3 37
22 0 6 -6 3 -13 -8 -10 -12 -16 -14 -21 -7 -12 19 -16 53 -5 47 5 -4 9 1 9 9
0 9 4 16 10 16 5 0 8 13 6 29 -2 23 0 28 12 23 11 -4 13 -2 7 8 -5 9 -4 11 4
6 9 -6 9 -11 0 -22 -6 -8 -9 -14 -6 -14 3 0 14 -3 24 -6 15 -5 15 -4 3 5 -12
8 -12 11 -1 11 7 0 11 6 7 15 -6 18 5 20 21 4 8 -8 11 -6 10 7 -1 11 3 18 10
17 9 -2 10 4 4 20 -6 15 -4 31 5 47 7 14 13 21 14 17 0 -5 -5 -17 -10 -28 -8
-14 -8 -19 1 -17 6 2 14 -3 17 -11 3 -9 0 -11 -9 -6 -8 5 -11 4 -6 -1 5 -5 12
-9 15 -9 4 0 14 -4 21 -9 8 -5 5 4 -7 21 -26 37 -27 43 -7 43 8 0 15 5 15 11
0 5 -6 7 -12 3 -7 -4 -6 1 3 12 9 10 15 27 14 37 -2 11 -1 16 2 13 9 -9 34 15
27 26 -4 6 3 5 14 -1 14 -7 23 -8 27 -1 4 6 10 8 15 5 13 -8 19 22 7 34 -9 9
-8 11 6 6 20 -8 20 -10 6 -36 -5 -11 -15 -16 -21 -13 -6 4 -8 3 -4 -4 4 -7 -2
-9 -20 -6 -17 3 -23 1 -19 -6 4 -6 13 -9 21 -6 7 3 16 1 19 -3 8 -14 -21 -20
-35 -8 -10 9 -11 9 -6 -1 5 -8 2 -11 -6 -10 -8 2 -12 -4 -10 -16 3 -14 -1 -17
-15 -12 -17 6 -17 5 1 -9 22 -17 38 -11 29 12 -4 10 -2 14 4 10 6 -4 24 3 40
16 15 13 37 29 48 36 19 11 19 12 -2 6 -18 -5 -22 -3 -17 9 3 8 12 12 20 9 8
-3 14 0 14 7 0 6 5 8 10 5 6 -4 8 -10 6 -14 -3 -4 0 -13 5 -21 8 -12 12 -12
16 -2 2 6 9 10 14 6 5 -3 5 -12 -1 -23 -5 -10 -6 -21 -3 -25 10 -9 41 -7 48 3
7 13 -45 60 -60 55 -6 -3 -12 2 -12 11 0 19 7 19 37 -2 14 -10 38 -18 54 -19
16 -1 24 1 18 5 -16 10 -18 43 -3 49 9 3 11 0 7 -7 -9 -13 11 -41 28 -41 6 0
3 5 -6 11 -10 5 -18 15 -18 21 0 7 4 7 14 -1 11 -9 15 -8 20 5 9 22 -10 34
-47 29 -19 -2 -27 0 -24 8 3 7 10 11 17 9 7 -2 17 3 22 10 6 10 10 10 19 -2 9
-12 10 -11 4 5 -11 33 -11 37 3 42 7 3 12 1 11 -4 -4 -25 2 -34 22 -28 18 6
19 4 10 -13 -11 -20 -6 -32 13 -32 6 0 5 4 -2 9 -20 12 18 54 41 46 9 -4 15
-11 12 -15 -3 -5 -1 -12 5 -15 6 -4 10 -3 9 2 -3 13 13 43 20 38 4 -2 8 2 8 9
0 8 -6 12 -14 9 -7 -3 -13 -11 -13 -19 0 -8 -6 -11 -15 -8 -21 8 -3 29 36 43
24 8 31 7 36 -5 5 -13 7 -12 17 2 10 14 8 21 -11 40 -13 13 -23 28 -23 34 0 7
-6 8 -19 1 -16 -9 -18 -7 -18 15 0 18 3 22 10 15 6 -6 15 -11 21 -11 5 0 1 6
-9 14 -22 16 -39 11 -31 -9 3 -8 -1 -19 -9 -25 -11 -9 -14 -7 -13 12 1 13 5
28 9 33 4 6 3 17 -3 25 -8 12 -9 12 -4 -3 3 -11 0 -20 -9 -24 -12 -4 -13 -9
-4 -19 7 -8 7 -14 1 -14 -5 0 -15 6 -21 14 -10 11 -8 17 6 26 17 11 17 11 0 6
-11 -4 -17 -2 -15 5 2 6 8 10 13 10 6 0 15 10 22 22 7 12 12 18 13 14 0 -4 10
-2 23 4 22 12 22 12 3 -10 -11 -11 -16 -24 -13 -27 4 -4 9 0 13 9 3 10 15 14
32 12 15 -2 21 -2 15 1 -10 4 -9 13 3 37 14 30 14 31 -2 12 -13 -15 -15 -16
-11 -3 3 9 0 19 -9 22 -11 4 -14 1 -9 -13 3 -12 0 -21 -10 -25 -11 -4 -14 -2
-9 6 5 7 3 8 -6 3 -8 -5 -11 -4 -6 3 10 17 -21 8 -44 -13 -19 -17 -25 -12 -22
17 1 3 -5 9 -13 12 -9 3 -12 0 -8 -10 3 -7 0 -14 -7 -14 -6 0 -8 -5 -5 -10 4
-6 11 -7 17 -4 5 4 2 -5 -7 -20 -16 -23 -16 -26 -1 -26 9 0 16 -4 16 -10 0
-12 -22 -9 -32 5 -5 6 -8 6 -8 -2 0 -6 5 -15 10 -18 7 -4 7 -12 0 -25 -5 -10
-10 -22 -10 -27 1 -4 7 3 14 16 11 19 14 21 19 7 4 -9 -1 -19 -11 -25 -9 -5
-14 -13 -10 -17 14 -13 39 18 32 40 -6 18 -5 19 10 7 13 -11 14 -16 4 -29 -7
-9 -8 -13 -3 -10 6 4 12 -2 12 -14 1 -14 -3 -18 -13 -14 -10 4 -12 2 -8 -6 5
-7 3 -8 -6 -3 -9 6 -11 4 -5 -6 8 -12 6 -12 -8 0 -11 9 -17 10 -17 2 0 -6 5
-11 11 -11 5 0 7 -5 3 -11 -4 -8 -9 -7 -15 2 -5 8 -9 10 -9 4 0 -5 -7 -1 -15
9 -8 11 -16 14 -16 8 -1 -7 -3 -16 -4 -22 -1 -5 -3 -15 -4 -21 0 -5 -5 -8 -11
-4 -5 3 -7 12 -4 19 8 21 -12 28 -27 9 -12 -15 -12 -16 3 -10 12 4 15 2 12 -8
-3 -8 -9 -14 -12 -13 -20 2 -32 -3 -27 -11 3 -5 0 -13 -6 -17 -8 -5 -10 -2 -5
7 4 8 1 6 -7 -3 -8 -10 -18 -14 -22 -10 -5 4 -6 2 -2 -4 3 -5 -4 -23 -17 -39
l-23 -28 1 34 c1 19 5 40 10 48 7 11 5 13 -7 8 -9 -3 -19 -2 -22 3 -3 5 8 7
25 5 18 -2 28 0 25 5 -3 6 1 7 9 4 11 -4 14 0 11 15 -2 12 1 21 6 21 6 0 7 5
4 10 -4 6 -11 7 -17 4 -7 -4 -8 -2 -4 4 11 18 37 2 31 -19 -5 -14 -2 -17 9
-13 9 3 13 10 10 15 -3 5 0 17 6 26 9 15 10 14 4 -7 -5 -20 -4 -23 7 -13 10
10 16 10 28 0 12 -10 14 -9 8 6 -4 11 -1 27 7 38 12 17 14 18 20 4 4 -10 2
-14 -5 -9 -7 4 -10 1 -7 -6 2 -7 12 -14 21 -16 20 -3 21 0 5 29 -16 31 -40 47
-60 41 -9 -3 -19 0 -23 5 -4 7 1 8 11 4 12 -5 15 -3 9 6 -6 10 -3 11 12 2 14
-7 23 -7 31 1 18 18 14 32 -4 17 -14 -11 -18 -11 -28 2 -6 9 -18 14 -26 12
-13 -4 -13 -3 0 6 11 8 18 7 26 -4 16 -22 26 -18 14 5 -6 11 -7 20 -3 21 4 0
-1 4 -12 9 -16 6 -14 8 13 7 18 0 29 -3 23 -6 -6 -4 -2 -12 9 -19 18 -11 20
-10 17 9 -2 11 -9 24 -16 29 -11 6 -10 14 5 39 10 17 24 29 31 27 7 -3 11 3
10 15 -1 10 -7 19 -15 19 -7 0 -10 -4 -7 -10 3 -6 -1 -7 -10 -4 -11 4 -14 2
-9 -9 3 -8 1 -18 -5 -22 -7 -4 -8 0 -4 11 4 12 3 15 -5 10 -7 -4 -12 -2 -12 3
0 6 -5 10 -11 9 -6 -2 -14 4 -16 12 -3 9 -1 11 4 5 4 -5 17 -11 28 -13 20 -3
20 -2 1 13 -11 8 -15 15 -10 15 6 0 15 -5 20 -10 14 -14 43 -3 40 15 -3 22
-16 31 -16 12 0 -9 -5 -17 -10 -17 -7 0 -7 6 0 20 11 21 30 27 30 9 0 -5 5 -7
10 -4 8 5 7 11 -1 21 -8 10 -8 14 0 14 6 0 11 -4 11 -10z m60 -2 c0 -11 -12
-10 -30 2 -12 7 -10 9 8 7 12 0 22 -5 22 -9z m-317 -23 c4 -8 3 -16 -1 -19 -4
-3 -9 4 -9 15 -2 23 3 25 10 4z m352 5 c4 -6 -1 -7 -11 -3 -10 4 -15 2 -11 -3
3 -6 1 -16 -4 -24 -7 -11 -8 -8 -5 10 3 14 5 26 5 28 2 6 21 1 26 -8z m-158
-6 c-3 -3 -12 -4 -19 -1 -8 3 -5 6 6 6 11 1 17 -2 13 -5z m183 -24 c-6 -11
-13 -20 -16 -20 -2 0 0 9 6 20 6 11 13 20 16 20 2 0 0 -9 -6 -20z m-405 -31
c-4 -5 0 -9 7 -9 10 0 9 -3 -2 -9 -24 -16 -31 -3 -21 37 1 2 6 0 11 -3 6 -4 8
-11 5 -16z m391 -8 c15 -13 25 -16 37 -9 9 5 17 7 17 4 0 -3 -8 -10 -18 -15
-13 -7 -25 -3 -47 15 -17 13 -25 24 -19 24 5 0 19 -8 30 -19z m44 13 c0 -8
-19 -13 -24 -6 -3 5 1 9 9 9 8 0 15 -2 15 -3z m-255 -24 c14 -5 23 -14 20 -20
-3 -5 -1 -10 5 -10 6 0 8 -5 4 -12 -6 -9 -9 -9 -12 0 -2 6 -2 14 0 18 2 3 -10
12 -27 19 -35 16 -28 19 10 5z m332 -32 c-3 -8 -6 -5 -6 6 -1 11 2 17 5 13 3
-3 4 -12 1 -19z m-323 -19 c11 -13 13 -19 4 -16 -7 2 -22 0 -33 -5 -19 -8 -19
-8 -2 5 19 16 24 32 5 21 -7 -4 -8 -3 -4 4 9 15 8 16 30 -9z m156 -30 c0 -5
-3 -8 -7 -8 -19 3 -34 -2 -29 -9 2 -4 -4 -13 -14 -20 -12 -7 -21 -8 -25 -2 -8
12 4 32 14 25 5 -2 16 4 26 15 17 19 35 19 35 -1z m41 -12 c-10 -9 -11 -8 -5
6 3 10 9 15 12 12 3 -3 0 -11 -7 -18z m114 -17 c-3 -5 -11 -10 -16 -10 -6 0
-7 5 -4 10 3 6 11 10 16 10 6 0 7 -4 4 -10z m-664 -68 c-24 -11 -27 -17 -18
-27 7 -7 15 -11 19 -9 4 2 10 -1 14 -7 4 -8 3 -9 -4 -5 -7 4 -12 2 -12 -5 0
-7 -7 -4 -15 7 -13 17 -14 17 -15 2 0 -9 5 -20 10 -23 6 -3 10 -10 10 -16 0
-5 -4 -9 -10 -9 -6 0 -9 5 -7 11 1 6 -3 13 -10 16 -9 3 -11 -11 -4 -34 3 -8
-5 -18 -12 -15 -9 3 -30 -49 -22 -56 3 -3 5 0 5 6 0 7 7 12 15 12 8 0 15 -4
15 -10 0 -5 -6 -9 -12 -7 -7 1 -12 -6 -12 -15 1 -10 -4 -14 -12 -11 -8 3 -14
1 -14 -5 0 -6 6 -12 13 -15 6 -3 2 -4 -10 -4 -12 1 -19 5 -17 9 6 10 15 48 16
68 1 8 8 20 17 27 18 13 21 35 6 45 -6 5 -5 8 3 8 7 0 10 5 7 10 -3 6 0 13 8
16 7 2 14 10 15 17 1 10 8 45 11 54 1 2 12 -3 26 -9 l25 -11 -29 -15z m449 22
c0 -8 -19 -13 -24 -6 -3 5 1 9 9 9 8 0 15 -2 15 -3z m-90 -44 c0 -5 -2 -10 -4
-10 -3 0 -8 5 -11 10 -3 6 -1 10 4 10 6 0 11 -4 11 -10z m168 -13 c20 2 31 -1
27 -7 -3 -5 -16 -9 -28 -8 -12 0 -28 -1 -36 -3 -7 -2 -15 4 -16 14 -2 12 0 15
8 9 7 -5 27 -7 45 -5z m-188 -12 c0 -8 -2 -15 -4 -15 -2 0 -6 7 -10 15 -3 8
-1 15 4 15 6 0 10 -7 10 -15z m464 -11 c3 -8 2 -12 -4 -9 -6 3 -10 10 -10 16
0 14 7 11 14 -7z m-289 -13 c-3 -6 -11 -9 -16 -6 -5 4 -9 1 -9 -4 0 -16 7 -14
40 11 24 17 32 19 45 8 8 -7 15 -17 15 -22 0 -6 -6 -5 -14 1 -11 10 -21 9 -45
-3 -16 -9 -32 -20 -36 -25 -3 -6 -13 -7 -22 -4 -10 4 -14 2 -9 -5 3 -6 2 -13
-3 -17 -5 -3 -14 3 -20 12 -10 17 -10 17 -11 0 0 -10 -5 -15 -11 -12 -14 9 17
42 61 65 36 19 47 19 35 1z m-130 -30 c3 -5 2 -12 -3 -15 -5 -3 -9 1 -9 9 0
17 3 19 12 6z m-15 -47 c-7 -7 -17 -11 -24 -8 -15 6 -30 -22 -20 -37 3 -5 11
-6 17 -3 9 5 9 4 0 -6 -6 -7 -9 -18 -7 -25 8 -19 -14 -29 -32 -14 -21 17 -8
25 13 8 16 -13 17 -12 4 4 -11 14 -11 17 0 17 11 0 11 2 -1 10 -8 5 -19 10
-25 10 -5 0 -3 -5 5 -10 13 -9 13 -10 0 -11 -8 0 -25 -2 -37 -3 -26 -3 -22 8
21 49 20 20 42 30 64 31 26 1 30 -1 22 -12z m25 -54 c3 -5 2 -10 -4 -10 -5 0
-13 5 -16 10 -3 6 -2 10 4 10 5 0 13 -4 16 -10z m-229 -22 c4 -7 3 -8 -4 -4
-7 4 -12 3 -12 -3 0 -6 -8 -7 -17 -4 -17 7 -15 8 24 22 1 1 5 -4 9 -11z m144
-63 c10 -13 9 -15 -8 -15 -15 0 -20 5 -16 15 4 8 7 15 9 15 1 0 8 -7 15 -15z
m600 -35 c0 -5 -5 -10 -11 -10 -5 0 -7 5 -4 10 3 6 8 10 11 10 2 0 4 -4 4 -10z
m212 -29 c-5 -3 -8 -14 -6 -24 1 -9 -1 -15 -6 -12 -5 3 -7 13 -5 23 2 9 4 21
4 25 1 5 6 5 12 1 7 -4 7 -9 1 -13z m-1107 -50 c3 -5 1 -12 -5 -16 -5 -3 -10
1 -10 9 0 18 6 21 15 7z m993 -142 c-1 -20 -4 -26 -9 -17 -5 7 -13 14 -19 14
-5 1 -13 2 -17 3 -8 1 28 30 39 31 4 0 6 -14 6 -31z m-64 -61 c9 15 26 16 26
1 0 -5 -4 -7 -10 -4 -15 9 -12 -11 4 -24 11 -9 16 -9 21 -1 5 8 10 9 18 1 13
-13 38 5 31 23 -3 8 5 12 25 12 17 0 29 -2 26 -4 -3 -3 4 -21 16 -41 11 -20
13 -26 3 -13 -23 30 -38 28 -18 -3 14 -22 14 -24 1 -19 -8 3 -18 0 -22 -6 -5
-8 -11 -8 -21 1 -8 6 -14 8 -14 3 0 -4 -12 3 -26 17 -14 13 -25 20 -24 14 5
-25 -2 -28 -16 -5 -8 14 -13 17 -10 7 4 -11 2 -16 -5 -12 -6 4 -8 13 -6 19 8
20 -51 12 -69 -10 -8 -10 -13 -12 -9 -4 6 13 5 13 -7 0 -20 -23 -42 -25 -34
-3 6 14 4 15 -5 6 -13 -13 -2 -36 13 -27 7 5 9 1 5 -9 -3 -9 -1 -19 5 -23 7
-5 8 -2 3 5 -6 10 -2 11 16 1 23 -10 23 -10 5 4 -21 17 -16 33 6 20 17 -11 39
-14 34 -5 -2 3 2 17 10 31 l14 25 -4 -28 c-3 -15 -1 -25 4 -22 4 3 10 -2 13
-10 5 -10 -1 -13 -23 -10 -17 2 -30 -2 -33 -10 -3 -7 -16 -11 -34 -8 -15 2
-34 5 -40 5 -9 1 -10 5 -2 14 7 8 7 14 -1 19 -12 8 -13 16 -1 34 8 12 12 12
25 2 11 -9 16 -10 16 -2 0 6 5 11 11 11 6 0 20 11 31 25 18 24 21 24 33 9 8
-12 14 -14 19 -6z m-44 -48 c-6 -4 -11 -10 -11 -14 1 -3 -1 -6 -4 -6 -6 0 -5
9 2 27 3 7 10 10 15 7 6 -4 6 -9 -2 -14z m85 -20 c5 8 13 6 27 -7 11 -10 23
-17 27 -15 3 1 6 -9 6 -23 1 -29 -7 -32 -25 -10 -11 14 -17 13 -48 -5 -27 -16
-37 -18 -43 -9 -10 16 -2 29 17 29 8 0 12 -5 9 -10 -4 -6 -11 -7 -17 -4 -7 4
-8 2 -4 -5 6 -9 11 -9 22 0 12 10 12 17 -5 45 l-20 34 23 -16 c17 -11 26 -12
31 -4z m179 -8 c3 -5 -1 -9 -9 -9 -8 0 -12 4 -9 9 3 4 7 8 9 8 2 0 6 -4 9 -8z
m-90 -34 l-19 -22 30 21 c30 21 31 21 32 2 1 -11 -3 -17 -8 -13 -12 7 -51 -25
-44 -36 3 -4 -2 -10 -10 -14 -20 -7 -28 9 -10 24 8 7 12 16 9 22 -7 11 14 38
29 38 5 0 2 -10 -9 -22z m-334 -9 c0 -6 -4 -7 -10 -4 -5 3 -10 11 -10 16 0 6
5 7 10 4 6 -3 10 -11 10 -16z m401 -17 c-9 -3 -10 -6 -2 -11 14 -9 23 -51 11
-51 -5 0 -17 14 -25 30 -9 17 -20 28 -25 25 -6 -4 -10 -2 -10 3 0 5 15 9 33 9
17 0 26 -2 18 -5z m-937 -17 c-4 -9 -15 -20 -25 -26 -11 -5 -17 -14 -14 -20 4
-5 1 -9 -4 -9 -8 0 -7 -7 1 -20 7 -10 15 -16 18 -12 8 11 30 13 30 3 0 -5 -9
-13 -20 -16 -11 -4 -18 -11 -15 -16 3 -5 -1 -6 -10 -3 -11 5 -14 2 -9 -12 4
-11 4 -16 0 -12 -4 3 -9 13 -10 22 -3 19 -21 22 -21 4 0 -6 -7 -13 -15 -15
-12 -4 -12 -3 -2 5 17 12 17 23 1 33 -8 5 -10 12 -3 21 5 8 1 5 -9 -6 -14 -15
-15 -21 -5 -27 7 -5 9 -9 4 -9 -5 0 -18 7 -28 17 -24 21 -34 11 -11 -12 16
-17 16 -17 -6 -10 -21 6 -23 5 -18 -16 6 -23 5 -23 -8 -5 -12 16 -12 22 -2 29
9 6 8 7 -3 4 -8 -2 -14 -13 -13 -23 1 -19 1 -19 -12 0 -9 11 -20 16 -30 12
-12 -4 -11 1 5 22 12 15 32 27 43 27 15 0 21 5 19 18 -2 9 3 17 10 17 8 1 6 6
-5 14 -12 9 -14 16 -8 21 6 3 11 0 12 -7 0 -10 2 -10 6 0 3 9 13 6 36 -10 43
-31 50 -30 89 3 39 33 39 33 32 14z m544 -5 c3 -8 -1 -11 -10 -7 -9 3 -20 1
-25 -4 -5 -5 -9 -1 -9 9 0 21 37 23 44 2z m71 -29 c7 -5 12 -13 10 -18 -2 -5
-12 -1 -21 9 -19 19 -13 24 11 9z m-600 -12 c-7 -4 -17 -5 -21 -3 -4 3 -5 -1
-2 -9 3 -8 -1 -14 -10 -14 -8 0 -14 8 -13 18 1 13 9 17 30 17 18 -1 24 -4 16
-9z m571 -9 c0 -5 -4 -10 -10 -10 -5 0 -10 5 -10 10 0 6 5 10 10 10 6 0 10 -4
10 -10z m393 -5 c-3 -9 -8 -14 -10 -11 -3 3 -2 9 2 15 9 16 15 13 8 -4z m-883
-15 c42 -22 52 -37 30 -43 -12 -3 -17 0 -14 8 3 7 0 16 -6 20 -6 3 -9 3 -8 -2
2 -4 -1 -9 -6 -10 -5 -1 -13 -7 -17 -15 -7 -10 -9 -10 -9 0 0 7 -4 11 -9 7 -5
-3 -12 -1 -16 5 -3 5 -11 10 -17 10 -6 0 -3 -9 7 -20 10 -11 13 -20 7 -20 -7
0 -12 5 -12 11 0 7 -9 9 -21 6 -19 -5 -20 -4 -5 12 10 10 14 25 10 35 -5 14
-1 16 27 13 19 -2 45 -10 59 -17z m640 5 c19 -23 8 -25 -14 -4 -11 11 -15 19
-9 19 6 0 16 -7 23 -15z m-261 2 c-2 -1 -13 -9 -24 -17 -19 -14 -19 -14 -6 3
7 9 18 17 24 17 6 0 8 -1 6 -3z m-293 -16 c11 9 18 8 29 -1 9 -7 13 -15 10
-18 -3 -3 0 -11 6 -18 8 -10 6 -12 -10 -9 -12 2 -21 -1 -21 -7 0 -6 -3 -8 -6
-5 -4 4 -1 13 6 22 17 21 -4 19 -26 -2 -16 -16 -16 -16 -10 5 6 17 3 22 -11
22 -15 0 -16 2 -3 10 10 6 16 6 18 -1 3 -6 9 -6 18 2z m384 5 c0 -3 -4 -8 -10
-11 -5 -3 -10 -1 -10 4 0 6 5 11 10 11 6 0 10 -2 10 -4z m40 0 c0 -3 -4 -8
-10 -11 -5 -3 -10 -1 -10 4 0 6 5 11 10 11 6 0 10 -2 10 -4z m30 0 c0 -2 -8
-10 -17 -17 -16 -13 -17 -12 -4 4 13 16 21 21 21 13z m195 -6 c3 -6 -1 -7 -9
-4 -18 7 -21 14 -7 14 6 0 13 -4 16 -10z m128 -5 c4 -8 2 -17 -4 -20 -5 -4 -9
-3 -8 2 4 22 -2 25 -17 7 -14 -18 -15 -18 -4 4 12 25 25 28 33 7z m-73 -21 c0
-2 -9 0 -20 6 -11 6 -20 13 -20 16 0 2 9 0 20 -6 11 -6 20 -13 20 -16z m-95 6
c-3 -5 -12 -10 -18 -10 -7 0 -6 4 3 10 19 12 23 12 15 0z m-405 -4 c0 -3 -4
-8 -10 -11 -5 -3 -10 -1 -10 4 0 6 5 11 10 11 6 0 10 -2 10 -4z m843 -25 c5
-22 -18 -37 -29 -19 -4 7 -3 8 4 4 7 -4 12 -2 12 3 0 6 -6 11 -12 11 -9 0 -8
4 2 10 8 5 16 10 16 10 1 0 4 -9 7 -19z m-1483 -5 c0 -3 -4 -8 -10 -11 -5 -3
-10 -1 -10 4 0 6 5 11 10 11 6 0 10 -2 10 -4z m247 -2 c-3 -3 -12 -4 -19 -1
-8 3 -5 6 6 6 11 1 17 -2 13 -5z m150 0 c-3 -3 -12 -4 -19 -1 -8 3 -5 6 6 6
11 1 17 -2 13 -5z m-660 -26 c-3 -8 -6 -5 -6 6 -1 11 2 17 5 13 3 -3 4 -12 1
-19z m-3 -123 c3 -8 1 -15 -4 -15 -6 0 -10 7 -10 15 0 8 2 15 4 15 2 0 6 -7
10 -15z m252 -27 c-16 -23 -46 -33 -46 -16 0 6 6 8 13 5 7 -3 19 4 25 14 7 10
15 19 18 19 3 0 -2 -10 -10 -22z m1447 -3 c4 -8 2 -17 -3 -20 -6 -4 -10 3 -10
14 0 25 6 27 13 6z m-1543 1 c0 -3 -4 -8 -10 -11 -5 -3 -10 -1 -10 4 0 6 5 11
10 11 6 0 10 -2 10 -4z m907 -21 c0 -8 -5 -11 -10 -8 -6 3 -17 -3 -25 -13 -12
-15 -14 -16 -9 -2 3 9 3 19 -1 21 -4 2 -2 3 4 1 6 -1 17 2 25 7 8 5 14 9 15 9
0 0 1 -7 1 -15z m53 -6 c-12 -22 -31 -21 -38 1 -3 9 1 11 11 7 9 -3 19 -2 22
3 12 19 16 10 5 -11z m-375 -12 c-11 -6 -21 -5 -28 3 -9 8 -7 9 7 4 13 -5 17
-4 12 4 -5 8 -2 10 10 5 15 -6 15 -7 -1 -16z m725 13 c0 -5 -2 -10 -4 -10 -3
0 -8 5 -11 10 -3 6 -1 10 4 10 6 0 11 -4 11 -10z m207 -5 c-5 -14 -29 -13 -34
2 -3 7 4 11 16 10 12 -1 20 -6 18 -12z m-887 -5 c0 -5 -2 -10 -4 -10 -3 0 -8
5 -11 10 -3 6 -1 10 4 10 6 0 11 -4 11 -10z m650 -36 c0 -8 -19 -13 -24 -6 -3
5 1 9 9 9 8 0 15 -2 15 -3z m-875 -29 c28 -29 31 -37 11 -29 -14 5 -51 54 -42
54 3 0 17 -11 31 -25z m155 -6 c0 -4 -12 -14 -26 -24 -24 -16 -27 -16 -45 1
-28 25 -24 30 26 30 25 -1 45 -4 45 -7z"/>
<path d="M949 1465 c-6 -21 -1 -32 19 -49 23 -19 23 -28 -3 -32 -9 -1 -12 5
-10 19 4 21 4 22 -10 3 -11 -14 -15 -16 -15 -5 -1 9 -7 6 -20 -10 -11 -12 -17
-27 -14 -32 9 -14 24 0 17 16 -6 18 1 19 28 4 11 -5 17 -15 13 -21 -4 -5 5 -2
20 7 14 10 26 14 26 9 0 -4 7 1 15 12 11 14 14 15 9 3 -3 -10 -1 -19 4 -23 5
-3 8 5 7 17 -1 15 -9 22 -24 23 -25 1 -51 32 -44 51 3 7 0 13 -6 13 -6 0 -12
-2 -12 -5z"/>
<path d="M866 1307 c3 -8 11 -14 19 -14 20 0 19 4 -5 17 -15 8 -18 8 -14 -3z"/>
<path d="M1042 1293 c-13 -5 -7 -23 9 -23 6 0 8 4 5 9 -4 5 0 12 6 14 7 3 9 5
3 5 -5 0 -16 -2 -23 -5z"/>
<path d="M1080 1294 c0 -6 7 -19 16 -30 14 -18 14 -18 3 6 -14 31 -19 36 -19
24z"/>
<path d="M1116 1282 c-3 -5 1 -9 9 -9 8 0 12 4 9 9 -3 4 -7 8 -9 8 -2 0 -6 -4
-9 -8z"/>
<path d="M1193 1283 c4 -6 1 -14 -5 -17 -7 -2 -3 -4 9 -2 12 1 26 6 30 12 5 5
4 6 -1 2 -5 -4 -16 -2 -24 5 -11 8 -14 8 -9 0z"/>
<path d="M881 1256 c-9 -10 -8 -15 3 -19 8 -3 17 1 20 8 7 20 -9 28 -23 11z"/>
<path d="M1073 1244 c0 -17 2 -22 7 -13 5 6 6 18 3 26 -8 19 -10 16 -10 -13z"/>
<path d="M1130 1256 c0 -2 8 -10 18 -17 15 -13 16 -12 3 4 -13 16 -21 21 -21
13z"/>
<path d="M1095 1231 c-6 -11 33 -36 43 -27 3 3 0 6 -7 6 -7 0 -9 4 -6 10 4 6
-1 7 -11 3 -12 -4 -15 -3 -10 5 4 7 5 12 2 12 -3 0 -7 -4 -11 -9z"/>
<path d="M1224 1221 c3 -5 -1 -11 -9 -15 -8 -3 -15 -11 -15 -18 0 -10 3 -9 9
1 8 12 11 12 25 -1 8 -9 12 -19 8 -22 -3 -4 2 -4 11 0 16 6 16 8 -4 22 -15 10
-17 17 -9 22 8 5 7 9 -5 13 -9 4 -14 3 -11 -2z"/>
<path d="M1080 1206 c0 -3 9 -10 20 -16 11 -6 20 -8 20 -6 0 3 -9 10 -20 16
-11 6 -20 8 -20 6z"/>
<path d="M929 1183 c-12 -16 -12 -17 2 -6 9 7 20 9 24 5 5 -4 5 -1 1 6 -9 16
-11 15 -27 -5z"/>
<path d="M1150 1181 c0 -6 4 -12 8 -15 5 -3 9 1 9 9 0 8 -4 15 -9 15 -4 0 -8
-4 -8 -9z"/>
<path d="M1128 1162 c8 -5 14 -13 15 -18 1 -13 27 -37 27 -25 0 5 -6 14 -14
18 -8 4 -15 12 -15 18 0 5 -5 11 -13 13 -11 3 -11 2 0 -6z"/>
<path d="M1175 1151 c-9 -15 15 -25 28 -12 9 9 7 10 -7 5 -13 -5 -17 -4 -12 4
4 7 5 12 2 12 -3 0 -7 -4 -11 -9z"/>
<path d="M1216 1134 c-3 -9 -4 -20 0 -25 3 -5 -5 -8 -17 -6 -16 1 -22 -4 -25
-23 -3 -18 -2 -21 5 -10 5 8 7 18 5 22 -3 4 5 7 18 5 16 -1 23 3 23 16 0 10 7
22 15 27 13 8 13 10 -1 10 -9 0 -20 -7 -23 -16z"/>
<path d="M776 1118 c3 -4 -8 -14 -24 -22 -22 -11 -29 -23 -29 -42 0 -25 1 -25
10 -8 7 10 12 22 12 26 0 4 15 18 34 32 27 20 29 25 13 23 -11 0 -19 -5 -16
-9z"/>
<path d="M1115 1120 c27 -12 43 -12 25 0 -8 5 -22 9 -30 9 -10 0 -8 -3 5 -9z"/>
<path d="M1081 1113 c-1 -17 16 -25 25 -12 4 7 3 9 -4 5 -5 -3 -13 0 -15 6 -4
9 -6 10 -6 1z"/>
<path d="M1055 1099 c-4 -6 -5 -12 -2 -15 2 -3 7 2 10 11 7 17 1 20 -8 4z"/>
<path d="M1112 1087 c-8 -10 -6 -13 7 -13 11 0 17 6 14 13 -3 7 -6 13 -8 13
-1 0 -7 -6 -13 -13z"/>
<path d="M965 1080 c-3 -6 1 -7 9 -4 18 7 21 14 7 14 -6 0 -13 -4 -16 -10z"/>
<path d="M1233 1084 c4 -4 -1 -12 -10 -19 -13 -9 -13 -14 -3 -20 9 -6 11 -4 5
5 -6 10 -4 12 9 7 9 -4 15 -3 11 2 -3 5 0 11 7 13 7 3 4 7 -7 12 -11 4 -16 4
-12 0z"/>
<path d="M979 1068 c-7 -23 -4 -35 7 -35 10 0 11 4 3 13 -7 8 -6 14 3 17 10 4
10 6 1 6 -7 1 -13 0 -14 -1z"/>
<path d="M1030 1060 c0 -5 5 -10 10 -10 6 0 10 5 10 10 0 6 -4 10 -10 10 -5 0
-10 -4 -10 -10z"/>
<path d="M1299 1068 c-7 -23 -4 -35 7 -35 8 0 14 4 14 9 0 4 -5 8 -11 8 -5 0
-7 5 -4 10 3 6 4 10 1 10 -3 0 -6 -1 -7 -2z"/>
<path d="M1375 1051 c-3 -5 -2 -12 3 -15 5 -3 9 1 9 9 0 17 -3 19 -12 6z"/>
<path d="M1094 1036 c1 -8 5 -18 8 -22 4 -3 5 1 4 10 -1 8 -5 18 -8 22 -4 3
-5 -1 -4 -10z"/>
<path d="M1174 1042 c4 -3 14 -7 22 -8 9 -1 13 0 10 4 -4 3 -14 7 -22 8 -9 1
-13 0 -10 -4z"/>
<path d="M1229 1023 c-13 -16 -12 -17 3 -5 9 8 23 10 29 6 8 -4 9 -3 5 4 -10
17 -21 15 -37 -5z"/>
<path d="M939 1028 c-8 -29 -5 -48 11 -63 19 -18 46 -12 34 7 -5 8 -1 9 12 4
14 -5 16 -4 7 5 -13 13 -37 3 -28 -12 4 -5 2 -9 -3 -9 -17 0 -22 13 -9 29 10
14 10 14 -5 3 -15 -12 -17 -11 -15 7 1 14 6 20 15 16 7 -2 10 0 7 5 -5 9 -24
14 -26 8z"/>
<path d="M911 1004 c0 -11 3 -14 6 -6 3 7 2 16 -1 19 -3 4 -6 -2 -5 -13z"/>
<path d="M981 1017 c2 -1 14 -11 27 -21 12 -11 22 -16 22 -13 0 10 -31 37 -42
37 -6 0 -9 -1 -7 -3z"/>
<path d="M1293 1007 c0 -7 9 -14 20 -14 11 -1 18 -1 16 0 -2 2 -11 8 -20 15
-12 9 -16 9 -16 -1z"/>
<path d="M1239 993 c-13 -16 -12 -17 4 -4 9 7 17 15 17 17 0 8 -8 3 -21 -13z"/>
<path d="M1370 980 c0 -7 -3 -10 -7 -7 -3 4 -12 -1 -19 -11 -22 -29 -15 -32
13 -6 14 13 23 27 20 31 -4 3 -7 0 -7 -7z"/>
<path d="M897 964 c3 -8 12 -13 19 -10 7 3 16 1 19 -4 4 -6 -2 -10 -11 -10
-10 0 -15 -3 -11 -6 3 -4 14 -4 23 0 13 5 14 9 4 21 -7 8 -16 12 -21 9 -5 -3
-9 0 -9 5 0 6 -4 11 -10 11 -5 0 -7 -7 -3 -16z"/>
<path d="M599 953 c-13 -16 -12 -17 4 -4 9 7 17 15 17 17 0 8 -8 3 -21 -13z"/>
<path d="M715 961 c-3 -5 0 -13 6 -17 8 -5 9 -3 4 6 -6 9 -1 10 16 5 19 -5 21
-4 9 4 -19 13 -27 14 -35 2z"/>
<path d="M838 958 c9 -9 9 -15 -1 -27 -11 -14 -10 -14 6 -2 15 12 17 11 18
-10 0 -13 3 -18 6 -11 6 17 -16 62 -31 62 -6 0 -5 -5 2 -12z"/>
<path d="M865 960 c3 -5 11 -10 16 -10 6 0 7 5 4 10 -3 6 -11 10 -16 10 -6 0
-7 -4 -4 -10z"/>
<path d="M694 943 c4 -8 1 -13 -8 -13 -9 0 -16 -5 -16 -12 0 -6 3 -8 7 -5 3 4
11 2 18 -3 8 -7 11 -4 10 10 -1 11 -5 23 -10 27 -4 5 -5 2 -1 -4z"/>
<path d="M990 940 c0 -5 5 -10 10 -10 6 0 10 5 10 10 0 6 -4 10 -10 10 -5 0
-10 -4 -10 -10z"/>
<path d="M1365 940 c3 -5 8 -10 11 -10 2 0 4 5 4 10 0 6 -5 10 -11 10 -5 0 -7
-4 -4 -10z"/>
<path d="M891 932 c-1 -7 7 -16 17 -19 9 -4 23 -14 30 -22 11 -14 11 -13 2 7
-6 12 -17 22 -25 22 -7 0 -16 6 -18 13 -4 9 -6 9 -6 -1z"/>
<path d="M953 915 c0 -8 6 -16 14 -19 11 -4 11 -1 3 14 -13 24 -17 25 -17 5z"/>
<path d="M1015 921 c-4 -7 1 -8 12 -4 15 6 16 4 6 -8 -10 -13 -10 -16 1 -16
16 0 15 29 -1 34 -6 2 -14 -1 -18 -6z"/>
<path d="M1093 909 c-2 -23 3 -25 10 -4 4 8 3 16 -1 19 -4 3 -9 -4 -9 -15z"/>
<path d="M630 888 c-18 -16 -20 -19 -6 -14 10 3 26 1 35 -6 13 -10 14 -10 4 2
-16 18 -17 34 -1 24 7 -4 8 -3 4 4 -9 15 -6 15 -36 -10z"/>
<path d="M757 893 c3 -7 6 -13 8 -13 2 0 5 6 8 13 3 8 -1 14 -8 14 -7 0 -11
-6 -8 -14z"/>
<path d="M820 906 c0 -2 7 -6 15 -10 8 -3 15 -1 15 4 0 6 -7 10 -15 10 -8 0
-15 -2 -15 -4z"/>
<path d="M877 895 c-7 -18 6 -27 27 -19 12 5 15 2 10 -12 -5 -15 -4 -16 4 -4
14 19 5 32 -19 25 -14 -5 -17 -3 -13 9 3 9 4 16 1 16 -3 0 -7 -7 -10 -15z"/>
<path d="M734 880 c0 -13 4 -16 10 -10 7 7 7 13 0 20 -6 6 -10 3 -10 -10z"/>
<path d="M582 881 c-11 -7 -11 -9 0 -14 9 -3 15 1 15 9 0 8 -1 14 -1 14 -1 0
-7 -4 -14 -9z"/>
<path d="M696 882 c-3 -5 1 -9 9 -9 8 0 12 4 9 9 -3 4 -7 8 -9 8 -2 0 -6 -4
-9 -8z"/>
<path d="M791 873 c7 -12 15 -20 18 -17 3 2 -3 12 -13 22 -17 16 -18 16 -5 -5z"/>
<path d="M955 869 c-4 -6 -5 -12 -2 -15 2 -3 7 2 10 11 7 17 1 20 -8 4z"/>
<path d="M1028 863 c10 -4 9 -10 -5 -26 -12 -15 -13 -18 -2 -9 9 6 19 10 22 7
4 -3 5 -2 2 2 -3 3 -1 11 5 17 6 8 2 12 -13 13 -12 0 -16 -1 -9 -4z"/>
<path d="M1336 858 c3 -4 11 -5 19 -1 21 7 19 12 -4 10 -11 0 -18 -5 -15 -9z"/>
<path d="M690 856 c0 -2 8 -10 18 -17 15 -13 16 -12 3 4 -13 16 -21 21 -21 13z"/>
<path d="M775 850 c-4 -6 -10 -8 -14 -6 -4 3 -8 -1 -8 -9 0 -11 4 -12 13 -4 8
7 14 6 17 -3 3 -7 4 -3 4 10 -1 25 -3 26 -12 12z"/>
<path d="M933 840 c4 -24 37 -43 37 -21 0 6 -7 7 -17 4 -9 -4 -14 -2 -10 3 3
6 1 16 -4 24 -7 11 -8 8 -6 -10z"/>
<path d="M1073 847 c0 -8 6 -14 14 -14 9 0 10 4 2 14 -6 7 -12 13 -14 13 -1 0
-2 -6 -2 -13z"/>
<path d="M1374 849 c-3 -6 -2 -15 3 -20 5 -5 9 -1 9 11 0 23 -2 24 -12 9z"/>
<path d="M820 840 c0 -5 5 -10 11 -10 5 0 7 5 4 10 -3 6 -8 10 -11 10 -2 0 -4
-4 -4 -10z"/>
<path d="M850 840 c0 -5 5 -10 10 -10 6 0 10 5 10 10 0 6 -4 10 -10 10 -5 0
-10 -4 -10 -10z"/>
<path d="M1401 838 c-1 -21 15 -32 25 -17 4 7 3 9 -4 5 -6 -3 -13 2 -15 11 -4
16 -5 16 -6 1z"/>
<path d="M1135 829 c-4 -6 -5 -12 -2 -15 2 -3 7 2 10 11 7 17 1 20 -8 4z"/>
<path d="M840 815 c0 -6 6 -17 13 -24 10 -11 9 -13 -4 -8 -9 3 -16 0 -16 -8 0
-10 5 -11 18 -4 10 5 21 14 24 19 8 13 55 -18 55 -36 0 -19 -17 -18 -23 1 -4
12 -5 11 -3 -1 2 -24 25 -29 33 -8 4 11 -1 23 -16 35 -12 10 -17 20 -12 23 5
4 12 2 16 -4 3 -5 11 -10 18 -10 6 0 2 6 -9 14 -13 10 -23 11 -31 4 -7 -6 -13
-7 -13 -3 0 4 -6 2 -14 -4 -11 -10 -17 -8 -25 6 -6 10 -11 13 -11 8z"/>
<path d="M1353 807 c0 -7 13 -13 29 -14 28 -1 33 7 6 11 -7 1 -18 5 -24 8 -6
4 -11 2 -11 -5z"/>
<path d="M736 798 c3 -5 10 -6 15 -3 13 9 11 12 -6 12 -8 0 -12 -4 -9 -9z"/>
<path d="M775 801 c-3 -5 -2 -12 3 -15 5 -3 9 1 9 9 0 17 -3 19 -12 6z"/>
<path d="M806 797 c3 -10 9 -15 12 -12 3 3 0 11 -7 18 -10 9 -11 8 -5 -6z"/>
<path d="M979 803 c-1 -5 -1 -11 0 -15 0 -5 -6 -8 -14 -8 -8 0 -15 -5 -15 -10
0 -17 33 5 36 24 1 9 0 16 -2 16 -2 0 -5 -3 -5 -7z"/>
<path d="M1155 800 c-3 -5 -1 -10 4 -10 6 0 11 5 11 10 0 6 -2 10 -4 10 -3 0
-8 -4 -11 -10z"/>
<path d="M650 780 c0 -5 5 -10 11 -10 5 0 7 5 4 10 -3 6 -8 10 -11 10 -2 0 -4
-4 -4 -10z"/>
<path d="M996 775 c-3 -8 -16 -20 -28 -25 -15 -5 -17 -9 -7 -9 17 -1 56 36 47
44 -3 3 -8 -1 -12 -10z"/>
<path d="M868 766 c-15 -11 -15 -13 3 -24 10 -7 19 -18 19 -26 0 -7 8 -20 17
-27 11 -10 14 -10 9 -1 -4 6 -2 12 3 12 6 0 11 5 11 11 0 8 -4 8 -14 0 -11 -9
-15 -6 -20 14 -4 14 -12 25 -19 25 -8 0 -7 4 3 10 8 5 12 11 10 14 -3 2 -13
-1 -22 -8z"/>
<path d="M1020 760 c0 -11 -5 -19 -11 -17 -6 1 -14 -5 -16 -13 -4 -13 -3 -13
6 0 10 14 12 13 15 -19 0 -8 12 -16 26 -18 18 -2 21 -1 10 6 -8 5 -18 8 -22 5
-4 -3 -5 13 -2 36 3 22 3 40 0 40 -3 0 -6 -9 -6 -20z"/>
<path d="M1415 769 c-4 -6 -5 -12 -2 -15 2 -3 7 2 10 11 7 17 1 20 -8 4z"/>
<path d="M444 762 c4 -7 2 -20 -6 -29 -7 -10 -8 -14 -1 -10 6 4 13 1 16 -5 4
-10 7 -10 18 0 8 7 10 13 4 12 -20 -4 -30 1 -17 9 10 6 9 11 -4 22 -13 10 -16
10 -10 1z"/>
<path d="M1305 760 c-3 -6 1 -7 9 -4 18 7 21 14 7 14 -6 0 -13 -4 -16 -10z"/>
<path d="M1435 760 c-2 -3 13 -7 33 -8 20 -2 33 1 28 5 -9 9 -56 12 -61 3z"/>
<path d="M480 746 c0 -2 7 -7 16 -10 8 -3 12 -2 9 4 -6 10 -25 14 -25 6z"/>
<path d="M733 729 c-2 -23 3 -25 10 -4 4 8 3 16 -1 19 -4 3 -9 -4 -9 -15z"/>
<path d="M1085 739 c-4 -6 -5 -12 -2 -15 2 -3 7 2 10 11 7 17 1 20 -8 4z"/>
<path d="M1253 735 c0 -8 4 -12 9 -9 5 3 6 10 3 15 -9 13 -12 11 -12 -6z"/>
<path d="M1351 734 c7 -8 6 -13 -3 -16 -7 -3 -5 -7 7 -12 11 -4 16 -4 12 0 -4
4 1 13 11 21 16 12 16 13 -2 6 -12 -4 -17 -3 -13 4 3 5 0 10 -8 10 -11 0 -12
-4 -4 -13z"/>
<path d="M1296 727 c3 -10 9 -15 12 -12 3 3 0 11 -7 18 -10 9 -11 8 -5 -6z"/>
<path d="M666 718 c3 -5 10 -6 15 -3 13 9 11 12 -6 12 -8 0 -12 -4 -9 -9z"/>
<path d="M861 725 c0 -5 6 -21 14 -35 8 -14 14 -20 14 -15 0 6 -6 21 -14 35
-8 14 -14 21 -14 15z"/>
<path d="M940 722 c0 -4 9 -8 20 -9 11 -1 20 2 20 5 0 4 -9 8 -20 9 -11 1 -20
-2 -20 -5z"/>
<path d="M1055 720 c-3 -5 -1 -10 4 -10 6 0 11 5 11 10 0 6 -2 10 -4 10 -3 0
-8 -4 -11 -10z"/>
<path d="M420 700 c-9 -6 -10 -10 -3 -10 6 0 15 5 18 10 8 12 4 12 -15 0z"/>
<path d="M990 703 c0 -6 8 -17 18 -24 16 -13 16 -13 2 6 -8 11 -16 22 -17 24
-2 2 -3 0 -3 -6z"/>
<path d="M1433 692 c0 -12 5 -22 9 -22 11 0 10 12 -2 30 -7 12 -9 10 -7 -8z"/>
<path d="M937 693 c-10 -10 -8 -23 4 -23 5 0 7 5 4 10 -3 6 1 10 9 10 9 0 16
-4 16 -10 0 -5 5 -10 11 -10 8 0 8 5 -1 15 -13 16 -32 19 -43 8z"/>
<path d="M1086 685 c-18 -14 -18 -14 1 -12 11 0 20 7 20 14 0 7 -1 13 -1 13
-1 0 -9 -7 -20 -15z"/>
<path d="M777 675 c-4 -8 -3 -16 1 -19 4 -3 9 4 9 15 2 23 -3 25 -10 4z"/>
<path d="M833 675 c0 -8 4 -12 9 -9 5 3 6 10 3 15 -9 13 -12 11 -12 -6z"/>
<path d="M1133 673 c0 -10 4 -10 16 -1 9 7 18 13 20 15 2 1 -5 1 -16 0 -11 0
-20 -7 -20 -14z"/>
<path d="M1351 670 c14 -31 19 -36 19 -24 0 6 -7 19 -16 30 -14 18 -14 18 -3
-6z"/>
<path d="M1370 680 c0 -5 5 -10 10 -10 6 0 10 5 10 10 0 6 -4 10 -10 10 -5 0
-10 -4 -10 -10z"/>
<path d="M897 662 c-3 -4 3 -18 14 -31 10 -13 19 -19 19 -13 0 6 -7 17 -15 25
-8 8 -11 17 -8 21 4 3 4 6 0 6 -3 0 -8 -3 -10 -8z"/>
<path d="M1187 661 c8 -9 9 -20 3 -31 -6 -12 -5 -17 5 -17 7 0 11 6 8 14 -4 9
0 11 13 7 11 -4 17 -5 14 -3 -29 25 -53 41 -43 30z"/>
<path d="M445 640 c-10 -11 -15 -20 -10 -20 4 0 1 -8 -6 -17 -13 -16 -12 -17
4 -4 9 8 15 16 12 19 -3 3 2 14 12 24 9 10 14 18 11 18 -3 0 -13 -9 -23 -20z"/>
<path d="M950 649 c0 -5 5 -7 10 -4 6 3 10 8 10 11 0 2 -4 4 -10 4 -5 0 -10
-5 -10 -11z"/>
<path d="M988 653 c7 -3 16 -2 19 1 4 3 -2 6 -13 5 -11 0 -14 -3 -6 -6z"/>
<path d="M1054 646 c1 -8 5 -18 8 -22 4 -3 5 1 4 10 -1 8 -5 18 -8 22 -4 3 -5
-1 -4 -10z"/>
<path d="M476 633 c-4 -9 -3 -20 1 -24 4 -4 9 3 9 17 2 28 -1 31 -10 7z"/>
<path d="M510 640 c0 -5 5 -10 11 -10 5 0 7 5 4 10 -3 6 -8 10 -11 10 -2 0 -4
-4 -4 -10z"/>
<path d="M1136 633 c-6 -14 -5 -15 5 -6 7 7 10 15 7 18 -3 3 -9 -2 -12 -12z"/>
<path d="M1250 640 c0 -5 5 -10 10 -10 6 0 10 5 10 10 0 6 -4 10 -10 10 -5 0
-10 -4 -10 -10z"/>
<path d="M1290 638 c0 -4 4 -8 9 -8 6 0 12 4 15 8 3 5 -1 9 -9 9 -8 0 -15 -4
-15 -9z"/>
<path d="M1330 640 c0 -5 5 -10 10 -10 6 0 10 5 10 10 0 6 -4 10 -10 10 -5 0
-10 -4 -10 -10z"/>
<path d="M860 625 c0 -2 6 -8 13 -14 10 -8 14 -7 14 2 0 8 -6 14 -14 14 -7 0
-13 -1 -13 -2z"/>
<path d="M1004 619 c-3 -6 -2 -15 4 -21 6 -6 12 -6 17 3 6 8 4 10 -5 4 -10 -6
-12 -4 -7 8 7 19 2 23 -9 6z"/>
<path d="M901 604 c0 -11 3 -14 6 -6 3 7 2 16 -1 19 -3 4 -6 -2 -5 -13z"/>
<path d="M960 609 c0 -5 -4 -8 -9 -4 -5 3 -13 0 -17 -6 -5 -8 -3 -9 6 -4 10 6
12 3 7 -11 -7 -18 -7 -18 8 0 15 20 20 36 10 36 -3 0 -5 -5 -5 -11z"/>
<path d="M1233 593 c-1 -19 1 -22 8 -12 11 17 12 39 2 39 -5 0 -9 -12 -10 -27z"/>
<path d="M1272 604 c-7 -8 -8 -14 -3 -14 10 0 25 19 20 25 -2 1 -10 -3 -17
-11z"/>
<path d="M367 599 c7 -7 15 -10 18 -7 3 3 -2 9 -12 12 -14 6 -15 5 -6 -5z"/>
<path d="M1046 599 c3 -5 9 -7 14 -4 5 3 13 -3 19 -12 6 -10 11 -13 11 -6 0
13 -17 26 -38 29 -6 1 -10 -2 -6 -7z"/>
<path d="M325 583 c3 -3 0 -12 -5 -18 -7 -9 -6 -14 3 -18 14 -5 17 28 4 38 -4
3 -5 2 -2 -2z"/>
<path d="M535 581 c-3 -5 -2 -12 3 -15 5 -3 9 1 9 9 0 17 -3 19 -12 6z"/>
<path d="M1031 583 c3 -18 -2 -27 -9 -17 -5 8 -14 3 -26 -15 l-20 -26 21 18
c13 11 22 14 24 8 2 -6 10 -2 16 8 8 13 9 22 3 26 -6 4 -10 3 -9 -2z"/>
<path d="M353 565 c0 -8 4 -12 9 -9 5 3 6 10 3 15 -9 13 -12 11 -12 -6z"/>
<path d="M1197 565 c3 -8 9 -12 14 -9 12 7 11 11 -5 17 -10 4 -13 1 -9 -8z"/>
<path d="M639 553 c-13 -16 -12 -17 4 -4 9 7 17 15 17 17 0 8 -8 3 -21 -13z"/>
<path d="M695 560 c3 -5 8 -10 11 -10 2 0 4 5 4 10 0 6 -5 10 -11 10 -5 0 -7
-4 -4 -10z"/>
<path d="M900 560 c-12 -7 -10 -9 8 -7 12 0 22 5 22 9 0 11 -12 10 -30 -2z"/>
<path d="M1176 556 c6 -15 4 -17 -6 -11 -9 6 -11 4 -5 -4 5 -9 10 -10 18 -2 8
8 7 14 -2 24 -10 10 -11 8 -5 -7z"/>
<path d="M673 547 c0 -8 6 -14 14 -14 9 0 10 4 2 14 -6 7 -12 13 -14 13 -1 0
-2 -6 -2 -13z"/>
<path d="M734 542 c3 -6 -2 -13 -11 -15 -16 -4 -16 -5 -1 -6 21 -1 32 15 17
25 -7 4 -9 3 -5 -4z"/>
<path d="M833 533 c0 -9 4 -10 14 -2 7 6 13 12 13 14 0 1 -6 2 -13 2 -8 0 -14
-6 -14 -14z"/>
<path d="M503 523 c1 -17 4 -19 14 -11 15 12 18 22 4 14 -5 -4 -11 0 -14 6 -3
7 -4 3 -4 -9z"/>
<path d="M1050 534 c0 -2 9 -8 20 -14 11 -6 20 -7 20 -2 0 6 -9 12 -20 15 -11
3 -20 3 -20 1z"/>
<path d="M456 518 c3 -4 11 -5 19 -1 21 7 19 12 -4 10 -11 0 -18 -5 -15 -9z"/>
<path d="M775 520 c-3 -5 -1 -10 4 -10 6 0 11 5 11 10 0 6 -2 10 -4 10 -3 0
-8 -4 -11 -10z"/>
<path d="M993 516 c-3 -6 -3 -8 2 -4 4 4 13 3 20 -2 8 -7 12 -5 12 3 0 16 -25
18 -34 3z"/>
<path d="M1126 518 c3 -4 9 -8 15 -8 5 0 9 4 9 8 0 5 -7 9 -15 9 -8 0 -12 -4
-9 -9z"/>
<path d="M1268 518 c-7 -17 1 -38 13 -38 6 0 8 4 4 9 -11 19 13 20 30 1 20
-22 44 -28 26 -7 -8 11 -7 14 7 14 9 0 22 -4 29 -9 7 -6 14 -4 19 3 4 7 3 9
-4 5 -6 -3 -13 -2 -17 3 -3 5 -13 10 -23 10 -24 0 -50 6 -58 14 -11 11 -21 8
-26 -5z"/>
<path d="M860 516 c0 -2 7 -7 16 -10 8 -3 12 -2 9 4 -6 10 -25 14 -25 6z"/>
<path d="M376 502 c-3 -5 1 -9 9 -9 8 0 12 4 9 9 -3 4 -7 8 -9 8 -2 0 -6 -4
-9 -8z"/>
<path d="M740 496 c10 -13 40 -12 40 1 0 3 -7 3 -15 -1 -8 -3 -15 -1 -15 4 0
6 -5 10 -11 10 -8 0 -8 -4 1 -14z"/>
<path d="M833 486 c0 -14 6 -27 13 -30 14 -5 30 11 20 21 -3 4 -6 1 -6 -6 0
-7 -4 -10 -9 -6 -6 3 -8 14 -6 25 2 11 0 20 -4 20 -5 0 -8 -11 -8 -24z"/>
<path d="M1036 493 c-6 -14 -5 -15 5 -6 7 7 10 15 7 18 -3 3 -9 -2 -12 -12z"/>
<path d="M1097 504 c-7 -7 13 -54 24 -54 13 0 17 24 7 43 -9 17 -20 22 -31 11z
m27 -19 c3 -8 1 -15 -3 -15 -5 0 -11 7 -15 15 -3 8 -1 15 3 15 5 0 11 -7 15
-15z"/>
<path d="M1157 503 c-4 -3 -7 -11 -7 -17 0 -6 5 -5 12 2 6 6 9 14 7 17 -3 3
-9 2 -12 -2z"/>
<path d="M892 492 c-9 -6 -6 -11 11 -19 18 -9 24 -8 24 2 0 8 -7 11 -15 7 -10
-3 -13 -1 -8 6 8 14 6 15 -12 4z"/>
<path d="M974 492 c3 -5 0 -13 -6 -15 -9 -4 -10 -6 -1 -6 17 -1 25 16 12 25
-7 4 -9 3 -5 -4z"/>
<path d="M1496 464 c3 -34 2 -35 -11 -18 -14 19 -14 18 -15 -1 -1 -18 -1 -19
-11 -2 -5 9 -8 21 -5 25 2 4 -8 7 -22 6 -23 -1 -35 -13 -14 -15 4 0 16 -9 27
-19 31 -29 83 -14 66 18 -4 9 -6 23 -4 30 3 6 0 12 -5 12 -5 0 -8 -16 -6 -36z"/>
<path d="M790 479 c0 -15 18 -19 23 -6 3 8 -1 14 -9 14 -8 0 -14 -4 -14 -8z"/>
<path d="M1065 461 c2 -17 -1 -33 -6 -36 -5 -4 -9 -1 -9 5 0 7 -8 9 -19 5 -14
-4 -21 0 -26 15 -4 12 -9 19 -12 17 -9 -10 19 -49 31 -44 7 3 13 -1 13 -8 0
-13 -21 -10 -42 5 -8 6 -47 7 -64 1 -7 -2 22 -31 32 -31 6 0 2 7 -9 15 -10 8
-14 15 -7 15 6 0 19 -7 27 -16 9 -9 16 -11 16 -4 0 6 5 8 13 3 16 -10 58 -12
52 -3 -3 4 2 13 10 20 8 7 15 9 15 5 0 -4 6 -2 14 4 9 8 16 8 20 2 4 -6 13 -8
21 -5 8 4 13 10 10 15 -3 4 -12 6 -19 3 -8 -3 -17 0 -21 5 -3 6 -11 9 -16 5
-6 -3 -9 2 -7 11 2 10 -2 20 -9 22 -8 3 -11 -5 -8 -26z m35 -17 c0 -8 -19 -13
-24 -6 -3 5 1 9 9 9 8 0 15 -2 15 -3z"/>
<path d="M251 466 c-9 -10 -8 -15 4 -20 10 -4 15 1 15 14 0 24 -4 25 -19 6z"/>
<path d="M1014 469 c3 -15 36 -21 36 -7 0 6 -6 8 -14 5 -8 -3 -17 -2 -20 4 -2
5 -3 4 -2 -2z"/>
<path d="M485 459 c-4 -6 -4 -13 -1 -16 3 -4 6 -1 6 6 0 7 5 9 12 5 7 -4 8 -3
4 4 -9 15 -13 15 -21 1z"/>
<path d="M876 454 c-8 -20 -8 -24 2 -24 4 0 8 9 9 20 2 24 -3 26 -11 4z"/>
<path d="M1205 444 c-10 -7 -12 -15 -6 -18 5 -4 14 2 20 11 6 10 11 12 11 6 0
-17 16 -17 23 0 6 16 -26 17 -48 1z"/>
<path d="M360 446 c0 -2 8 -10 18 -17 15 -13 16 -12 3 4 -13 16 -21 21 -21 13z"/>
<path d="M900 445 c0 -7 30 -13 34 -7 3 4 -4 9 -15 9 -10 1 -19 0 -19 -2z"/>
<path d="M958 443 c7 -3 16 -2 19 1 4 3 -2 6 -13 5 -11 0 -14 -3 -6 -6z"/>
<path d="M229 428 c-6 -26 -5 -38 2 -38 6 0 7 -6 3 -12 -4 -7 -4 -10 1 -6 4 4
15 2 23 -4 8 -7 21 -13 29 -14 11 -2 12 1 2 12 -6 7 -15 12 -19 9 -11 -7 -33
22 -26 34 4 5 2 12 -4 16 -5 3 -10 5 -11 3z"/>
<path d="M483 1255 c0 -8 4 -12 9 -9 5 3 6 10 3 15 -9 13 -12 11 -12 -6z"/>
<path d="M954 1144 c-18 -14 -18 -15 4 -4 12 6 22 13 22 15 0 8 -5 6 -26 -11z"/>
<path d="M802 1074 c-7 -8 -8 -14 -3 -14 10 0 25 19 20 25 -2 1 -10 -3 -17
-11z"/>
<path d="M765 1051 c-3 -5 -2 -12 3 -15 5 -3 9 1 9 9 0 17 -3 19 -12 6z"/>
<path d="M1560 630 c13 -8 13 -10 -1 -10 -9 0 -22 -7 -29 -15 -10 -12 -16 -13
-29 -3 -11 8 -10 5 3 -9 10 -13 22 -20 27 -18 4 3 11 1 14 -5 5 -8 11 -7 21 1
10 8 11 15 4 24 -8 9 -8 15 0 20 12 8 4 25 -13 25 -7 0 -6 -4 3 -10z m4 -52
c-4 -5 -11 -5 -18 1 -7 6 -17 7 -22 3 -4 -4 -2 1 5 11 10 13 17 15 27 6 8 -6
11 -15 8 -21z"/>
<path d="M1486 561 c-4 -6 -13 -8 -19 -5 -9 5 -9 3 0 -6 16 -17 61 -22 69 -8
5 7 2 8 -5 4 -7 -5 -18 -1 -25 10 -9 12 -15 14 -20 5z"/>
<path d="M555 461 c3 -5 1 -12 -5 -16 -6 -4 -8 -10 -5 -15 7 -11 -22 -33 -33
-26 -6 3 -15 -1 -21 -8 -8 -9 -8 -16 -2 -20 5 -4 13 -1 16 5 4 5 14 8 22 5 8
-3 12 -2 9 3 -3 5 0 14 8 20 11 9 15 8 20 -5 5 -14 9 -13 25 7 14 17 16 28 9
36 -6 7 -14 10 -19 7 -5 -3 -9 0 -9 5 0 6 -5 11 -11 11 -5 0 -8 -4 -4 -9z m44
-20 c2 -1 -2 -8 -9 -16 -10 -12 -16 -13 -26 -4 -8 6 -12 15 -9 19 4 7 13 7 44
1z"/>
<path d="M566 428 c3 -5 10 -6 15 -3 13 9 11 12 -6 12 -8 0 -12 -4 -9 -9z"/>
<path d="M626 429 c2 -4 0 -10 -6 -14 -6 -4 -8 -11 -4 -16 3 -5 9 -7 14 -4 5
3 11 1 15 -5 13 -21 25 -9 13 13 -7 12 -12 25 -11 28 1 3 -4 6 -12 6 -8 0 -12
-4 -9 -8z m18 -17 c3 -5 -1 -9 -9 -9 -8 0 -12 4 -9 9 3 4 7 8 9 8 2 0 6 -4 9
-8z"/>
<path d="M735 403 c19 -22 66 -26 58 -6 -5 12 -7 12 -14 1 -7 -11 -9 -11 -9 1
0 7 -6 11 -14 8 -7 -3 -19 -1 -25 4 -6 5 -4 1 4 -8z"/>
<path d="M834 49 c-4 -7 -3 -9 4 -5 5 3 13 0 15 -6 4 -9 6 -10 6 -1 1 17 -16
25 -25 12z"/>
<path d="M1076 1808 c3 -5 10 -6 15 -3 13 9 11 12 -6 12 -8 0 -12 -4 -9 -9z"/>
<path d="M795 1781 c4 -8 2 -17 -6 -22 -9 -6 -10 -9 -2 -9 19 0 27 21 13 33
-10 9 -11 9 -5 -2z"/>
<path d="M743 1678 c1 -8 -7 -13 -20 -12 -13 1 -20 -3 -17 -8 3 -5 8 -7 11 -4
3 3 14 1 24 -5 15 -8 17 -6 12 7 -5 13 -3 15 8 9 12 -8 12 -6 0 8 -16 20 -22
22 -18 5z"/>
<path d="M1220 1656 c0 -2 7 -7 16 -10 8 -3 12 -2 9 4 -6 10 -25 14 -25 6z"/>
<path d="M714 1613 c3 -6 -2 -16 -11 -22 -10 -5 -16 -12 -13 -14 3 -3 14 1 24
9 17 12 18 16 6 27 -9 8 -11 8 -6 0z"/>
<path d="M1270 1601 c0 -6 4 -13 10 -16 6 -3 7 1 4 9 -7 18 -14 21 -14 7z"/>
<path d="M639 1553 c-13 -16 -12 -17 4 -4 9 7 17 15 17 17 0 8 -8 3 -21 -13z"/>
<path d="M1291 1487 c-1 -10 -5 -15 -11 -12 -6 4 -7 -1 -3 -11 6 -15 7 -15 15
0 5 9 7 22 4 29 -2 7 -5 4 -5 -6z"/>
<path d="M593 1455 c0 -8 4 -12 9 -9 5 3 6 10 3 15 -9 13 -12 11 -12 -6z"/>
<path d="M591 1427 c-1 -5 3 -17 9 -27 7 -13 6 -19 -6 -24 -10 -4 -14 0 -12
11 3 17 -38 27 -48 11 -3 -5 -2 -8 3 -7 18 3 33 -2 33 -11 0 -5 -8 -7 -17 -4
-15 5 -16 4 -3 -5 13 -10 13 -12 0 -21 -10 -6 -12 -12 -5 -19 7 -7 25 2 55 29
25 22 38 37 29 35 -10 -4 -20 3 -27 17 -6 13 -11 19 -11 15z m-25 -85 c-17
-16 -18 -16 -5 5 7 12 15 20 18 17 3 -2 -3 -12 -13 -22z"/>
<path d="M513 1365 c0 -8 4 -15 9 -15 4 0 8 4 8 9 0 6 -4 12 -8 15 -5 3 -9 -1
-9 -9z"/>
<path d="M415 1340 c-3 -5 -1 -10 4 -10 6 0 11 5 11 10 0 6 -2 10 -4 10 -3 0
-8 -4 -11 -10z"/>
<path d="M453 1320 c-2 -23 13 -35 23 -19 5 8 3 9 -6 4 -10 -6 -12 -4 -7 8 3
9 3 18 -1 21 -4 3 -8 -4 -9 -14z"/>
<path d="M1350 1326 c0 -2 7 -6 15 -10 8 -3 15 -1 15 4 0 6 -7 10 -15 10 -8 0
-15 -2 -15 -4z"/>
<path d="M1407 1296 c-5 -13 11 -34 40 -50 12 -7 12 11 0 32 -8 11 -2 16 16
13 5 -1 5 4 1 10 -5 9 -12 6 -24 -9 -10 -12 -20 -18 -24 -15 -3 3 -1 12 5 20
7 8 8 13 1 13 -5 0 -12 -6 -15 -14z"/>
<path d="M373 1265 c0 -8 4 -12 9 -9 5 3 6 10 3 15 -9 13 -12 11 -12 -6z"/>
<path d="M1470 1261 c0 -5 8 -15 18 -22 15 -12 16 -12 5 2 -7 9 -10 19 -6 22
3 4 1 7 -5 7 -7 0 -12 -4 -12 -9z"/>
<path d="M1510 1260 c0 -5 5 -10 11 -10 5 0 7 5 4 10 -3 6 -8 10 -11 10 -2 0
-4 -4 -4 -10z"/>
<path d="M1459 1216 c6 -8 10 -19 9 -26 -2 -7 8 -14 22 -16 23 -4 24 -3 6 10
-10 9 -15 20 -10 27 4 8 3 10 -4 5 -7 -4 -12 -2 -12 3 0 6 -5 11 -11 11 -8 0
-8 -4 0 -14z"/>
<path d="M1506 1222 c-3 -5 1 -9 9 -9 8 0 12 4 9 9 -3 4 -7 8 -9 8 -2 0 -6 -4
-9 -8z"/>
<path d="M395 1160 c-3 -5 -3 -10 2 -10 4 0 1 -5 -7 -10 -8 -5 -10 -10 -5 -10
6 0 17 5 25 10 11 7 11 10 2 10 -7 0 -10 5 -7 10 3 6 4 10 1 10 -3 0 -8 -4
-11 -10z"/>
<path d="M1505 1131 c-3 -5 -2 -12 3 -15 5 -3 9 1 9 9 0 17 -3 19 -12 6z"/>
<path d="M349 1083 c-13 -16 -12 -17 4 -4 9 7 17 15 17 17 0 8 -8 3 -21 -13z"/>
<path d="M1532 1080 c0 -14 2 -19 5 -12 2 6 2 18 0 25 -3 6 -5 1 -5 -13z"/>
<path d="M350 886 c0 -2 8 -10 18 -17 15 -13 16 -12 3 4 -13 16 -21 21 -21 13z"/>
<path d="M348 833 c7 -3 16 -2 19 1 4 3 -2 6 -13 5 -11 0 -14 -3 -6 -6z"/>
<path d="M1786 742 c-3 -5 1 -9 9 -9 8 0 12 4 9 9 -3 4 -7 8 -9 8 -2 0 -6 -4
-9 -8z"/>
<path d="M179 645 c0 -5 -2 -18 -4 -27 -2 -10 2 -21 8 -25 7 -3 9 -3 5 2 -4 4
-4 13 2 19 5 7 5 17 0 26 -6 8 -10 11 -11 5z"/>
<path d="M1840 520 c-9 -6 -10 -10 -3 -10 6 0 15 5 18 10 8 12 4 12 -15 0z"/>
<path d="M1905 399 c-4 -6 -5 -12 -2 -15 2 -3 7 2 10 11 7 17 1 20 -8 4z"/>
<path d="M1951 256 c-9 -10 -8 -16 3 -25 12 -10 14 -9 12 6 -2 10 2 21 8 25 8
6 8 8 0 8 -6 0 -17 -6 -23 -14z"/>
<path d="M135 169 c-4 -6 -5 -12 -2 -15 2 -3 7 2 10 11 7 17 1 20 -8 4z"/>
<path d="M201 166 c-9 -11 -9 -16 0 -22 7 -4 9 -3 5 4 -3 6 2 15 11 21 10 6
13 11 7 11 -6 0 -17 -6 -23 -14z"/>
<path d="M275 160 c-3 -5 0 -10 7 -10 10 0 10 -2 -1 -9 -9 -6 -10 -11 -2 -15
6 -4 11 -4 12 1 0 4 2 16 4 26 3 18 -10 23 -20 7z"/>
<path d="M490 138 c0 -4 5 -8 11 -8 5 0 7 -6 3 -12 -4 -7 -3 -9 1 -5 15 13 14
34 -1 34 -8 0 -14 -4 -14 -9z"/>
<path d="M539 145 c0 0 -2 -11 -5 -25 -3 -20 -2 -22 6 -8 6 10 22 16 40 16 29
-1 44 -18 16 -18 -8 0 -18 -5 -21 -11 -4 -6 0 -9 11 -7 11 2 24 11 29 21 10
16 12 16 30 1 11 -8 14 -12 6 -8 -7 3 -17 0 -22 -7 -15 -23 -10 -34 6 -13 13
17 14 17 15 2 0 -31 15 -20 15 11 1 16 -2 28 -6 25 -4 -2 -10 3 -13 12 -5 13
-9 14 -21 4 -8 -7 -15 -8 -15 -3 0 7 -45 12 -71 8z"/>
<path d="M1710 128 c0 -4 5 -8 11 -8 5 0 7 -5 4 -10 -4 -6 5 -5 19 2 26 11 35
28 16 28 -5 0 -10 -4 -10 -10 0 -5 -5 -10 -11 -10 -5 0 -8 4 -5 8 3 5 -1 9 -9
9 -8 0 -15 -4 -15 -9z"/>
<path d="M330 122 c0 -4 10 -9 22 -9 18 -2 20 0 8 7 -18 12 -30 13 -30 2z"/>
<path d="M555 109 c-4 -6 -5 -12 -2 -15 2 -3 7 2 10 11 7 17 1 20 -8 4z"/>
<path d="M1868 103 c7 -3 16 -2 19 1 4 3 -2 6 -13 5 -11 0 -14 -3 -6 -6z"/>
<path d="M998 94 c-8 -13 28 -51 39 -41 3 4 1 7 -6 7 -7 0 -9 5 -5 12 4 6 3 8
-4 4 -6 -3 -12 2 -14 11 -2 12 -6 14 -10 7z"/>
<path d="M1226 78 c3 -5 10 -6 15 -3 13 9 11 12 -6 12 -8 0 -12 -4 -9 -9z"/>
<path d="M1716 73 c-6 -14 -5 -15 5 -6 7 7 10 15 7 18 -3 3 -9 -2 -12 -12z"/>
<path d="M496 67 c3 -10 9 -15 12 -12 3 3 0 11 -7 18 -10 9 -11 8 -5 -6z"/>
<path d="M1070 60 c0 -5 5 -10 10 -10 6 0 10 5 10 10 0 6 -4 10 -10 10 -5 0
-10 -4 -10 -10z"/>
<path d="M1619 68 c-8 -27 -5 -36 9 -30 10 4 12 7 4 10 -7 2 -10 8 -6 13 3 5
3 9 0 9 -3 0 -6 -1 -7 -2z"/>
<path d="M551 47 c-8 -10 -7 -14 2 -14 8 0 14 6 14 14 0 7 -1 13 -2 13 -2 0
-8 -6 -14 -13z"/>
<path d="M668 53 c7 -3 16 -2 19 1 4 3 -2 6 -13 5 -11 0 -14 -3 -6 -6z"/>
<path d="M700 54 c0 -5 7 -18 15 -28 8 -11 15 -16 15 -10 0 5 -7 18 -15 28 -8
11 -15 16 -15 10z"/>
<path d="M636 18 c3 -5 10 -6 15 -3 13 9 11 12 -6 12 -8 0 -12 -4 -9 -9z"/>
<path d="M693 15 c0 -8 4 -12 9 -9 5 3 6 10 3 15 -9 13 -12 11 -12 -6z"/>
<path d="M895 21 c-3 -6 4 -9 15 -8 11 1 20 5 20 9 0 11 -28 10 -35 -1z"/>
</g>
</svg>
